<?xml version="1.0" standalone="no"?>
<!DOCTYPE svg PUBLIC "-//W3C//DTD SVG 20010904//EN"
 "http://www.w3.org/TR/2001/REC-SVG-20010904/DTD/svg10.dtd">
<svg version="1.0" xmlns="http://www.w3.org/2000/svg"
 width="512.000000pt" height="512.000000pt" viewBox="0 0 512.000000 512.000000"
 preserveAspectRatio="xMidYMid meet">
<metadata>
Created by potrace 1.16, written by Peter Selinger 2001-2019
</metadata>
<g transform="translate(0.000000,512.000000) scale(0.100000,-0.100000)"
fill="#000000" stroke="none">
<path d="M1805 3910 c-4 -6 19 -10 62 -10 l68 0 -2 -382 c-1 -211 2 -372 7
-358 4 14 8 188 9 386 l1 362 -31 6 c-48 9 -107 7 -114 -4z"/>
<path d="M2003 3913 c-19 -4 -22 -13 -29 -101 -4 -53 -5 -240 -2 -414 l5 -318
-63 0 -64 0 0 83 c-3 533 -6 727 -12 727 -5 0 -8 -182 -8 -404 l0 -405 -47 -4
c-27 -2 13 -4 89 -5 l136 -2 -4 29 c-3 16 -1 32 4 35 4 2 9 -13 10 -35 l3 -39
-151 0 c-138 0 -150 -1 -150 -18 0 -26 20 -42 52 -42 l28 0 0 -130 0 -131 -82
3 -83 3 -5 270 -5 270 -5 -235 c-2 -129 -4 -250 -5 -268 0 -33 0 -33 -45 -30
l-45 3 -5 135 -6 135 -2 -130 c-1 -86 -6 -135 -14 -143 -7 -7 -46 -13 -92 -14
l-81 -2 80 -5 80 -6 5 -315 c3 -173 6 -303 8 -287 2 27 15 33 46 21 13 -5 16
-26 16 -131 0 -123 0 -124 23 -121 22 3 22 5 19 133 -2 75 -8 132 -14 136 -6
4 -5 9 3 12 8 3 -10 3 -38 0 l-53 -6 0 287 0 286 61 0 61 0 -2 -277 c-1 -153
-1 -477 -1 -720 l1 -442 34 -35 c31 -34 37 -36 94 -36 l61 0 4 -37 c2 -21 4 7
3 62 0 55 -1 76 -3 48 l-4 -53 -45 0 c-25 0 -58 7 -73 16 -58 34 -56 19 -56
529 -1 259 1 575 2 703 l4 232 79 0 80 0 0 -64 0 -65 -37 -4 -38 -4 38 -1 37
-2 0 -89 0 -90 -32 -4 -33 -4 33 -1 32 -2 0 -60 c0 -60 0 -60 -29 -60 -17 0
-33 -4 -36 -10 -4 -6 8 -10 29 -10 35 0 36 -1 36 -40 0 -39 -1 -40 -35 -40
-19 0 -35 -4 -35 -10 0 -5 16 -10 35 -10 41 0 47 -17 8 -23 l-28 -4 28 -2 c16
0 27 -7 27 -15 0 -8 -12 -17 -27 -19 l-28 -4 28 -2 c24 -1 27 -5 27 -35 0 -34
-1 -35 -42 -39 l-43 -4 48 -1 47 -2 0 490 c0 320 3 490 10 490 15 0 14 -1816
-1 -1861 -7 -19 -21 -45 -33 -58 -21 -23 -189 -141 -202 -141 -17 0 24 32 94
73 88 51 118 80 127 122 6 24 2 21 -16 -15 -19 -36 -39 -54 -101 -91 -73 -43
-81 -45 -135 -41 -32 2 -62 8 -68 13 -5 5 -31 9 -57 9 l-49 0 36 32 c20 17 48
54 62 82 33 66 37 154 25 601 l-9 330 -1 -430 c-1 -248 -6 -445 -12 -466 -5
-19 -26 -54 -46 -78 -35 -41 -125 -101 -152 -101 -8 0 15 15 49 33 70 36 122
94 139 155 14 51 14 801 -1 839 -15 40 -47 71 -100 99 -26 12 -49 30 -53 39
-3 9 -6 77 -6 150 l0 134 28 13 c15 7 27 20 27 28 0 13 -29 15 -187 18 l-188
2 0 285 c0 202 -3 285 -11 285 -8 0 -10 -67 -6 -237 6 -256 2 -333 -18 -333
-18 0 -26 -25 -12 -39 6 -6 19 -11 29 -11 17 0 18 -13 18 -160 l0 -161 -32
-17 c-53 -28 -105 -84 -117 -127 -6 -22 -11 -75 -11 -117 l0 -78 -72 0 c-40 0
-79 4 -85 8 -10 6 -13 185 -16 818 -1 492 -2 368 -2 -316 l0 -1125 21 -46 c26
-55 96 -125 141 -140 22 -7 153 -9 398 -7 201 2 365 0 365 -4 0 -5 -222 -9
-492 -9 -271 -1 -506 -5 -523 -9 l-30 -7 25 -7 c14 -4 239 -5 502 -4 262 2
474 0 472 -4 -5 -8 743 -4 751 4 3 3 -8 16 -26 29 -18 13 -29 18 -25 11 4 -7
5 -12 2 -12 -7 0 -126 80 -126 85 0 3 25 -11 55 -30 30 -20 55 -33 55 -31 0 3
-31 25 -69 50 -38 25 -76 55 -83 68 -10 18 -14 155 -16 661 -2 565 -1 638 13
643 12 5 15 29 15 145 0 126 -2 139 -17 139 -17 0 -18 13 -15 163 l3 164 41
-1 c79 -2 79 66 -1 72 l-41 3 0 405 c0 362 2 404 16 404 9 0 14 6 12 13 -5 13
-39 18 -75 10z m4 -595 c-3 -8 -6 -5 -6 6 -1 11 2 17 5 13 3 -3 4 -12 1 -19z
m10 -90 c-2 -13 -4 -5 -4 17 -1 22 1 32 4 23 2 -10 2 -28 0 -40z m3 -55 c0
-22 -2 -25 -10 -13 -13 20 -13 40 0 40 6 0 10 -12 10 -27z m93 -110 c-13 -2
-35 -2 -50 0 -16 2 -5 4 22 4 28 0 40 -2 28 -4z m-358 -51 c-3 -3 -11 0 -18 7
-9 10 -8 11 6 5 10 -3 15 -9 12 -12z m161 -2 c43 1 52 -2 56 -18 3 -11 6 -416
7 -900 2 -853 6 -974 31 -1023 16 -31 91 -109 105 -109 5 0 -6 15 -26 33 -42
39 -74 85 -65 94 3 3 6 1 6 -6 0 -7 23 -37 51 -67 29 -30 48 -54 44 -54 -4 0
-2 -6 4 -14 11 -13 -19 -15 -215 -16 l-227 -1 64 43 c50 34 70 55 92 99 l29
56 -2 923 c0 508 -3 927 -6 932 -4 6 -20 17 -38 25 l-31 14 35 -6 c19 -4 58
-6 86 -5z m142 -583 c10 -3 6 -5 -10 -6 l-28 -1 -1 -347 c-1 -192 -5 -476 -9
-633 -6 -215 -7 -132 -5 343 1 460 5 631 13 639 8 8 13 57 14 133 l2 120 3
-122 c3 -105 6 -122 21 -126z m-755 26 c-35 -2 -63 -8 -63 -13 0 -6 7 -10 15
-10 12 0 15 -28 17 -167 l3 -168 60 -31 c34 -18 70 -45 83 -64 12 -18 22 -27
22 -19 -1 25 -36 62 -91 94 l-54 31 0 150 c-1 128 -1 132 2 24 2 -69 5 -135 8
-147 3 -13 29 -36 64 -57 37 -23 62 -46 68 -63 6 -16 11 -74 12 -130 l2 -103
-284 0 -285 0 -1 83 c-1 97 16 140 69 174 88 56 80 35 80 216 0 89 5 169 10
177 8 13 0 16 -48 21 -31 3 40 6 158 5 118 0 187 -1 153 -3z m-292 -351 c-2
-7 -22 -24 -45 -37 -23 -13 -55 -38 -71 -55 l-30 -31 -3 -404 c-3 -384 -2
-406 17 -442 22 -43 70 -91 121 -122 19 -11 30 -21 24 -21 -19 0 -99 58 -120
87 -61 83 -59 62 -59 493 l0 395 24 38 c14 23 45 50 77 69 l54 30 2 166 2 167
6 -160 c3 -88 3 -166 1 -173z m-344 -764 c-1 -79 -3 -17 -3 137 0 154 2 218 3
143 2 -75 2 -201 0 -280z m783 162 l0 -250 -230 0 c-198 0 -230 -2 -230 -15 0
-13 30 -15 211 -15 l212 0 -8 -37 c-4 -21 -8 -48 -9 -60 0 -11 -4 -19 -8 -16
-5 2 -8 -2 -8 -11 0 -24 -78 -83 -125 -95 -119 -30 -226 -1 -301 81 -71 77
-69 65 -72 368 l-3 275 80 -3 c53 -3 81 0 81 7 0 6 -33 12 -82 14 -46 1 46 4
205 5 l287 2 0 -250z m-618 -47 c3 -271 4 -279 27 -327 14 -27 42 -67 63 -88
l38 -38 -32 0 c-89 0 -157 44 -194 125 -23 49 -24 57 -24 328 l0 277 59 0 60
0 3 -277z m-96 -394 c34 -36 69 -56 121 -68 33 -8 34 -9 10 -10 -40 -1 -88 21
-126 60 -36 36 -71 101 -70 134 0 11 8 -4 18 -33 10 -29 31 -67 47 -83z m1281
49 c-3 -7 -5 -2 -5 12 0 14 2 19 5 13 2 -7 2 -19 0 -25z m-910 -134 c-3 -3
-12 -4 -19 -1 -8 3 -5 6 6 6 11 1 17 -2 13 -5z"/>
<path d="M1946 2818 c-7 -139 1 -1529 9 -1537 3 -2 5 372 5 832 0 460 -2 837
-4 837 -2 0 -6 -60 -10 -132z"/>
<path d="M1098 2443 c17 -2 47 -2 65 0 17 2 3 4 -33 4 -36 0 -50 -2 -32 -4z"/>
<path d="M1192 2018 c-17 -17 -15 -54 4 -72 24 -24 61 -20 80 9 15 23 15 27 0
50 -18 27 -63 34 -84 13z m68 -13 c20 -24 3 -57 -28 -53 -27 3 -39 26 -28 54
7 18 40 18 56 -1z"/>
<path d="M1227 1894 c-14 -14 -7 -42 12 -47 26 -6 44 7 39 29 -3 19 -38 31
-51 18z"/>
<path d="M1037 1574 c-12 -13 -8 -42 8 -48 25 -9 46 5 43 28 -3 21 -37 34 -51
20z m38 -14 c3 -6 -1 -13 -10 -16 -19 -8 -30 0 -20 15 8 14 22 14 30 1z"/>
<path d="M1302 1428 c-1 -56 -6 -88 -14 -90 -16 -6 -2 -38 17 -38 19 0 32 29
17 39 -6 4 -13 44 -15 91 l-3 85 -2 -87z m18 -102 c0 -11 -19 -15 -25 -6 -3 5
1 10 9 10 9 0 16 -2 16 -4z"/>
<path d="M1378 1463 c12 -2 32 -2 45 0 12 2 2 4 -23 4 -25 0 -35 -2 -22 -4z"/>
<path d="M1383 1433 c9 -2 25 -2 35 0 9 3 1 5 -18 5 -19 0 -27 -2 -17 -5z"/>
<path d="M1375 1400 c3 -5 19 -10 36 -10 16 0 29 5 29 10 0 6 -16 10 -36 10
-21 0 -33 -4 -29 -10z"/>
<path d="M1383 1373 c9 -2 25 -2 35 0 9 3 1 5 -18 5 -19 0 -27 -2 -17 -5z"/>
<path d="M2707 3673 c-13 -13 -7 -25 7 -14 10 9 81 11 254 9 132 -2 238 0 235
5 -5 9 -487 10 -496 0z"/>
<path d="M2882 3653 c-53 -3 -63 -7 -60 -21 3 -15 20 -17 136 -20 l132 -3 0
-367 0 -368 41 -84 c41 -85 223 -538 285 -708 38 -105 41 -130 18 -174 -20
-38 -14 -86 21 -164 27 -61 33 -125 12 -142 -9 -8 -78 -7 -235 1 l-222 11 0
193 c0 177 5 215 25 183 10 -16 78 -12 104 6 13 9 29 32 37 50 12 29 12 39 0
68 -18 43 -46 58 -101 55 -47 -3 -72 11 -78 44 -2 12 -4 -23 -5 -79 0 -55 3
-106 8 -114 14 -22 0 -40 -31 -40 -19 0 -29 -5 -29 -15 0 -8 -9 -15 -20 -15
-11 0 -20 -7 -20 -15 0 -9 6 -12 15 -9 18 7 20 -17 3 -35 -11 -10 -10 -11 4
-6 9 4 24 17 32 30 18 28 20 39 6 30 -5 -3 -10 -1 -10 4 0 6 8 11 18 11 17 0
20 -12 25 -97 4 -54 7 -131 7 -170 l0 -73 -30 0 c-30 0 -30 0 -30 59 0 38 4
61 13 64 7 3 5 6 -5 6 -15 1 -18 -8 -19 -51 l-2 -53 -7 40 -7 40 -2 -47 c0
-27 4 -48 9 -48 6 0 10 -4 10 -10 0 -6 -63 -10 -169 -10 -170 0 -201 -3 -201
-22 0 -7 77 -9 220 -7 l220 4 0 -27 c0 -25 -3 -28 -35 -28 -32 0 -35 -2 -35
-31 l0 -31 -185 4 -185 3 0 -22 c0 -22 3 -23 108 -23 60 0 143 -3 185 -6 l77
-7 0 -39 c0 -31 5 -41 25 -50 35 -16 55 4 55 53 l0 39 63 0 c34 0 120 3 191 7
l129 6 -6 -37 c-28 -176 -268 -336 -487 -324 -56 3 -65 1 -68 -15 -2 -10 5
-28 15 -39 16 -18 26 -20 93 -15 112 8 165 30 281 116 128 96 199 190 199 264
0 20 6 26 33 30 17 3 47 9 65 13 22 4 32 3 32 -5 0 -7 -4 -10 -9 -7 -5 3 -11
-1 -14 -8 -3 -8 -1 -17 6 -20 9 -3 9 -5 0 -5 -7 -1 -13 -6 -13 -11 0 -6 5 -9
12 -8 6 2 13 -6 15 -17 2 -16 1 -17 -5 -3 -6 14 -10 14 -24 4 -10 -7 -14 -16
-10 -20 4 -5 -1 -6 -12 -4 -18 3 -19 0 -29 -94 0 -10 -7 -18 -14 -18 -7 0 -13
-6 -13 -14 0 -8 -4 -18 -10 -21 -6 -4 -7 1 -3 11 4 12 3 15 -6 10 -7 -5 -11
-17 -8 -27 3 -10 2 -19 -2 -21 -11 -5 -49 -65 -64 -101 -16 -36 -48 -62 -62
-49 -5 4 -5 2 -2 -4 3 -6 -26 -26 -69 -47 -41 -20 -74 -41 -74 -46 0 -17 76 0
146 34 143 69 279 229 330 389 21 64 26 102 27 181 1 110 11 76 -122 414 -34
85 -59 156 -58 158 4 3 150 -324 173 -387 8 -19 19 -55 25 -80 10 -37 13 -42
20 -25 10 25 11 40 2 32 -3 -4 -16 23 -28 60 -12 38 -36 100 -54 138 -53 115
-263 617 -336 803 -37 96 -74 176 -81 179 -8 3 -11 9 -9 14 3 4 -2 16 -12 26
-10 10 -17 26 -15 36 2 9 -2 17 -8 17 -9 0 -11 86 -9 349 4 315 6 351 22 368
9 11 17 27 17 36 0 15 -13 17 -112 15 -62 -1 -141 -3 -176 -5z m148 -1497 c0
-2 -7 -9 -15 -16 -12 -10 -15 -10 -15 4 0 9 7 16 15 16 8 0 15 -2 15 -4z m115
-28 c21 -25 25 -38 21 -62 -9 -44 -39 -70 -80 -70 -49 0 -76 27 -76 77 0 85
82 118 135 55z m315 -33 c0 -5 -5 -3 -10 5 -5 8 -10 20 -10 25 0 6 5 3 10 -5
5 -8 10 -19 10 -25z m-32 -539 c52 -8 96 -17 100 -20 22 -23 -75 -41 -273 -50
-66 -4 -148 -9 -182 -12 l-63 -6 0 58 0 57 163 -6 c89 -4 204 -13 255 -21z
m-438 -56 c-6 -11 -17 -20 -25 -20 -8 0 -15 9 -15 20 0 15 7 20 25 20 23 0 24
-2 15 -20z m8 -117 c-3 -33 -6 -38 -28 -38 -22 0 -25 5 -28 38 -3 35 -2 37 28
37 30 0 31 -2 28 -37z m412 -296 c0 -2 -12 -14 -27 -28 l-28 -24 24 28 c23 25
31 32 31 24z"/>
<path d="M2720 3642 c0 -5 7 -17 15 -28 12 -16 14 -79 15 -385 l0 -366 -35
-45 c-33 -42 -105 -193 -160 -333 -13 -33 -84 -204 -158 -380 -216 -516 -236
-579 -222 -720 8 -74 33 -167 44 -161 4 3 7 -5 7 -17 -1 -12 4 -21 11 -20 6 1
14 -4 17 -13 3 -8 2 -12 -4 -9 -21 13 -9 -7 23 -37 17 -18 23 -26 12 -18 -11
7 -4 -2 16 -21 19 -19 26 -27 15 -19 -12 8 -3 -5 19 -28 41 -44 61 -58 29 -19
-12 13 -5 11 16 -8 53 -45 57 -49 41 -40 -9 5 -12 4 -7 -3 4 -6 13 -9 20 -6 8
3 17 0 22 -7 5 -8 3 -10 -6 -4 -8 5 -11 4 -6 -3 4 -6 14 -8 23 -5 12 5 14 3 8
-7 -5 -8 -4 -11 3 -6 6 3 34 -3 63 -14 80 -32 81 -18 1 33 -114 74 -226 187
-267 271 -37 74 -62 188 -51 232 5 19 12 24 33 22 36 -4 41 19 6 34 l-28 12
33 4 c17 2 32 7 32 12 0 5 3 16 6 25 5 13 2 15 -21 9 -28 -7 -28 -6 -23 32 3
21 40 129 83 239 42 110 100 259 127 330 143 374 233 580 272 623 25 28 42 57
47 85 4 23 8 205 9 405 l0 362 -40 0 c-22 0 -40 -4 -40 -8z m-299 -1529 c-12
-20 -14 -14 -5 12 4 9 9 14 11 11 3 -2 0 -13 -6 -23z m-50 -120 c-12 -20 -14
-14 -5 12 4 9 9 14 11 11 3 -2 0 -13 -6 -23z m-20 -50 c-12 -20 -14 -14 -5 12
4 9 9 14 11 11 3 -2 0 -13 -6 -23z m-25 -60 c-8 -15 -15 -25 -16 -21 0 12 23
58 27 54 3 -2 -2 -17 -11 -33z m-25 -60 c-12 -20 -14 -14 -5 12 4 9 9 14 11
11 3 -2 0 -13 -6 -23z m-20 -50 c-12 -20 -14 -14 -5 12 4 9 9 14 11 11 3 -2 0
-13 -6 -23z m-20 -50 c-12 -20 -14 -14 -5 12 4 9 9 14 11 11 3 -2 0 -13 -6
-23z m-35 -99 c-14 -38 -25 -64 -25 -58 -1 15 40 136 45 131 2 -2 -7 -35 -20
-73z"/>
<path d="M1554 3472 c-23 -15 -34 -50 -25 -75 24 -62 111 -41 111 26 0 40 -54
71 -86 49z m47 -12 c12 -7 19 -21 19 -40 0 -23 -5 -31 -25 -36 -15 -4 -32 -1
-40 6 -20 17 -19 57 3 69 21 13 20 13 43 1z"/>
<path d="M675 3407 c-3 -6 -4 -374 -3 -817 3 -796 3 -805 23 -808 20 -3 20 2
17 812 -2 719 -4 815 -17 820 -9 3 -18 0 -20 -7z"/>
<path d="M4162 3073 l-2 -243 -60 0 -59 0 -4 138 -3 137 -2 -137 -2 -138 -25
0 c-14 0 -34 -9 -46 -21 -18 -18 -19 -23 -6 -42 8 -12 28 -26 46 -31 l31 -9 0
-374 0 -375 -75 4 c-41 2 -75 0 -75 -4 0 -4 66 -9 148 -11 l147 -3 -147 -2
c-91 -1 -148 -6 -148 -12 0 -6 32 -10 75 -10 l75 0 0 -140 c0 -136 -1 -141
-22 -149 -73 -29 -121 -55 -107 -58 8 -2 40 8 70 21 l54 26 3 -76 c2 -42 1
-78 -1 -80 -1 -2 -53 -4 -114 -5 -100 -1 -112 -3 -116 -20 -5 -18 2 -19 114
-19 l119 0 0 -28 c0 -21 -7 -32 -25 -40 -20 -9 -25 -19 -25 -46 0 -22 7 -40
18 -48 10 -7 21 -30 25 -50 5 -32 2 -40 -15 -49 -15 -8 -19 -18 -16 -41 l5
-30 -46 7 c-56 9 -79 20 -109 54 l-23 26 16 -32 c8 -18 25 -38 38 -44 25 -14
37 -28 37 -48 0 -33 -102 55 -132 113 -15 29 -56 188 -58 224 0 1 -6 2 -14 2
-21 0 -31 -101 -18 -179 6 -35 24 -91 41 -125 32 -63 105 -156 123 -156 6 0 5
7 -3 18 -13 15 -12 16 3 3 10 -7 15 -17 12 -22 -3 -5 3 -12 13 -17 13 -5 8 -8
-21 -12 -48 -6 -58 -26 -19 -37 48 -14 636 -10 664 4 13 7 38 14 54 15 17 2
-10 9 -60 16 -49 7 -102 16 -118 20 l-27 7 42 34 c139 111 207 272 195 461 -9
146 -72 274 -191 390 -52 50 -55 59 -26 85 26 24 26 62 0 70 -11 4 -56 3 -100
-1 l-80 -7 -1 89 c-1 259 3 659 7 663 3 3 19 10 37 16 61 19 42 85 -25 85
l-28 0 -1 138 c-1 75 -5 184 -9 242 -5 86 -7 61 -8 -137z m93 -282 c0 -16 -18
-27 -57 -36 l-28 -5 0 -385 c0 -378 0 -385 -20 -385 -19 0 -20 7 -20 265 0
170 -4 265 -10 265 -6 0 -10 -95 -10 -265 l0 -265 -30 0 -30 0 0 375 c0 235 4
375 10 375 5 0 7 7 4 15 -4 10 -20 15 -49 15 -46 0 -61 11 -51 36 8 21 291 16
291 -5z m125 -838 c0 -12 -3 -14 -8 -6 -5 8 -42 13 -97 16 l-90 3 98 2 c87 2
97 0 97 -15z m-270 -110 c-5 -97 -14 -127 -44 -153 -14 -11 -16 1 -16 119 l0
131 33 0 32 0 -5 -97z m56 -1 c-9 -124 -4 -142 42 -167 47 -25 72 -75 72 -142
l0 -53 -120 0 -120 0 0 82 c0 81 1 83 36 119 41 42 53 85 54 192 0 62 2 67 21
67 21 0 21 -3 15 -98z m167 83 c-28 -12 -33 -19 -33 -49 0 -19 5 -38 11 -42 7
-4 9 0 5 13 -8 24 9 73 24 73 7 0 5 -9 -4 -21 -14 -21 -12 -25 40 -83 72 -79
128 -163 152 -229 22 -57 30 -111 19 -114 -4 -2 -61 -3 -127 -3 l-120 0 0 79
c0 71 -3 83 -26 111 -15 17 -39 37 -54 45 -23 12 -29 23 -35 65 -4 28 -4 77 0
110 l7 60 86 0 c84 -1 86 -1 55 -15z m227 -527 c-1 -131 -58 -266 -152 -359
-79 -78 -144 -109 -227 -109 -90 0 -111 7 -111 36 0 18 -6 24 -22 25 -13 1 2
5 31 10 93 16 174 77 208 156 8 21 13 75 13 157 l0 125 123 4 c67 1 125 4 130
5 4 1 7 -22 7 -50z m-282 -73 c-4 -84 -9 -111 -24 -133 -23 -31 -92 -67 -146
-77 -37 -6 -38 -5 -38 24 0 17 -6 34 -13 38 -19 12 -28 41 -14 47 9 5 9 7 0
12 -16 7 -17 34 -1 34 20 0 48 32 48 56 0 12 -11 31 -25 42 -14 11 -25 29 -25
41 0 20 5 21 121 21 l122 0 -5 -105z m-555 -145 l7 -35 -15 39 c-8 21 -17 68
-19 105 l-5 66 13 -70 c7 -38 16 -86 19 -105z m36 -87 c12 -24 19 -43 16 -43
-5 0 -45 75 -45 86 0 11 6 2 29 -43z m62 -95 c15 -28 5 -21 -21 15 -15 20 -17
27 -6 18 9 -8 22 -23 27 -33z m454 -83 c-16 -8 -43 -14 -60 -13 -24 0 -21 2
14 9 24 5 46 11 49 14 3 3 10 5 16 4 6 0 -2 -7 -19 -14z m-237 -12 c-10 -2
-26 -2 -35 0 -10 3 -2 5 17 5 19 0 27 -2 18 -5z m115 -10 c-18 -2 -48 -2 -65
0 -18 2 -4 4 32 4 36 0 50 -2 33 -4z"/>
<path d="M3975 2790 c-4 -6 42 -10 129 -10 84 0 136 4 136 10 0 6 -50 10 -129
10 -76 0 -132 -4 -136 -10z"/>
<path d="M4112 2550 c0 -19 2 -27 5 -17 2 9 2 25 0 35 -3 9 -5 1 -5 -18z"/>
<path d="M4083 3223 c-15 -6 -17 -39 -3 -48 20 -12 51 6 48 28 -3 22 -22 30
-45 20z"/>
<path d="M2970 2780 c0 -5 5 -10 10 -10 6 0 10 5 10 10 0 6 -4 10 -10 10 -5 0
-10 -4 -10 -10z"/>
<path d="M2925 2770 c4 -6 -5 -10 -20 -10 -23 0 -26 -4 -23 -27 3 -32 25 -40
51 -20 14 9 17 20 12 40 -4 15 -11 27 -17 27 -5 0 -6 -4 -3 -10z"/>
<path d="M932 2727 c-10 -11 -9 -17 3 -27 24 -20 45 4 24 26 -14 13 -17 13
-27 1z"/>
<path d="M1517 2713 c-3 -10 -2 -130 1 -268 l7 -250 27 -3 c15 -2 35 1 45 7
14 8 10 10 -24 11 l-43 0 0 160 c0 136 2 160 15 160 13 0 15 -23 15 -150 0
-143 1 -150 20 -150 19 0 20 7 20 250 l0 250 -39 0 c-29 0 -41 -5 -44 -17z"/>
<path d="M2912 2667 c-16 -19 7 -40 28 -27 13 8 13 11 -1 25 -13 14 -17 14
-27 2z"/>
<path d="M2810 2609 c-12 -7 -11 -9 5 -9 17 0 17 -2 5 -10 -13 -8 -12 -10 3
-10 9 0 17 6 17 14 0 20 -13 27 -30 15z"/>
<path d="M1234 2595 c-9 -23 3 -45 26 -45 25 0 37 25 20 45 -16 19 -39 19 -46
0z m36 -16 c0 -5 -7 -9 -15 -9 -15 0 -20 12 -9 23 8 8 24 -1 24 -14z"/>
<path d="M1370 2595 c0 -8 9 -15 20 -15 11 0 20 7 20 15 0 8 -9 15 -20 15 -11
0 -20 -7 -20 -15z"/>
<path d="M2980 2595 c7 -8 16 -12 21 -9 13 8 1 24 -18 24 -13 0 -13 -3 -3 -15z"/>
<path d="M2760 2517 c0 -8 7 -14 15 -14 8 0 15 6 15 14 0 7 -7 13 -15 13 -8 0
-15 -6 -15 -13z"/>
<path d="M2960 2515 c0 -9 5 -15 11 -13 6 2 11 8 11 13 0 5 -5 11 -11 13 -6 2
-11 -4 -11 -13z"/>
<path d="M2920 2480 c0 -5 5 -10 10 -10 6 0 10 5 10 10 0 6 -4 10 -10 10 -5 0
-10 -4 -10 -10z"/>
<path d="M2995 2470 c-3 -5 -2 -10 4 -10 5 0 13 5 16 10 3 6 2 10 -4 10 -5 0
-13 -4 -16 -10z"/>
<path d="M844 2459 c-9 -15 12 -33 30 -26 17 7 22 37 6 37 -5 0 -9 -3 -7 -7 1
-5 -2 -9 -8 -10 -5 -2 -9 2 -7 7 3 13 -5 13 -14 -1z"/>
<path d="M2934 2416 c-8 -21 3 -36 27 -36 15 0 20 6 17 22 -4 27 -35 37 -44
14z"/>
<path d="M2820 2360 c0 -5 5 -10 11 -10 5 0 7 5 4 10 -3 6 -8 10 -11 10 -2 0
-4 -4 -4 -10z"/>
<path d="M3020 2344 c0 -8 5 -12 10 -9 6 3 10 10 10 16 0 5 -4 9 -10 9 -5 0
-10 -7 -10 -16z"/>
<path d="M2935 2341 c-6 -11 9 -23 19 -14 9 9 7 23 -3 23 -6 0 -12 -4 -16 -9z"/>
<path d="M2996 2305 c4 -8 8 -15 10 -15 2 0 4 7 4 15 0 8 -4 15 -10 15 -5 0
-7 -7 -4 -15z"/>
<path d="M2850 2215 c-15 -18 -6 -45 13 -45 8 0 20 6 26 14 9 11 8 18 -4 30
-20 20 -20 20 -35 1z"/>
<path d="M3150 2185 c0 -8 5 -15 10 -15 6 0 10 7 10 15 0 8 -4 15 -10 15 -5 0
-10 -7 -10 -15z"/>
<path d="M2929 2188 c-9 -31 -6 -50 7 -55 8 -3 19 -2 24 3 13 13 0 54 -16 54
-8 0 -14 -1 -15 -2z m31 -38 c0 -5 -4 -10 -9 -10 -6 0 -13 5 -16 10 -3 6 1 10
9 10 9 0 16 -4 16 -10z"/>
<path d="M2815 2100 c3 -5 8 -10 11 -10 2 0 4 5 4 10 0 6 -5 10 -11 10 -5 0
-7 -4 -4 -10z"/>
<path d="M2721 2073 c-34 -29 -37 -75 -9 -108 49 -57 128 -25 128 51 0 64 -70
97 -119 57z m89 -13 c57 -57 -22 -147 -82 -93 -26 23 -24 78 4 97 30 21 54 20
78 -4z"/>
<path d="M2940 2050 c13 -8 12 -10 -3 -10 -10 0 -15 -4 -12 -10 9 -15 23 -12
34 8 8 14 5 18 -12 19 -17 2 -19 0 -7 -7z"/>
<path d="M3854 1966 c-3 -8 -1 -23 5 -34 8 -16 5 -24 -15 -43 -59 -54 -166
-230 -151 -246 3 -2 14 16 25 41 26 57 67 117 126 183 40 45 44 52 30 64 -8 7
-13 21 -11 31 6 21 -1 24 -9 4z"/>
<path d="M3102 1948 c5 -15 28 -18 29 -3 0 6 -7 12 -17 13 -10 3 -15 -1 -12
-10z"/>
<path d="M1778 1893 c6 -2 18 -2 25 0 6 3 1 5 -13 5 -14 0 -19 -2 -12 -5z"/>
<path d="M1800 1855 c0 -23 -4 -25 -45 -25 -25 0 -45 -4 -45 -10 0 -5 20 -10
45 -10 41 0 45 -2 45 -24 0 -23 -3 -24 -35 -19 -23 4 -35 2 -35 -6 0 -6 17
-11 40 -11 l40 0 0 65 c0 36 -2 65 -5 65 -3 0 -5 -11 -5 -25z"/>
<path d="M2836 1873 c-11 -11 -6 -23 9 -23 8 0 15 4 15 9 0 13 -16 22 -24 14z"/>
<path d="M2720 1860 c0 -5 5 -10 11 -10 5 0 7 5 4 10 -3 6 -8 10 -11 10 -2 0
-4 -4 -4 -10z"/>
<path d="M2780 1859 c0 -5 9 -9 20 -9 11 0 20 4 20 8 0 4 -9 8 -20 9 -11 1
-20 -2 -20 -8z"/>
<path d="M2947 1863 c-13 -12 -7 -40 8 -40 8 0 12 4 9 8 -2 4 1 9 8 11 6 2 8
10 4 16 -8 13 -19 15 -29 5z"/>
<path d="M2932 1785 c0 -16 2 -22 5 -12 2 9 2 23 0 30 -3 6 -5 -1 -5 -18z"/>
<path d="M3035 1781 c-7 -12 12 -24 25 -16 11 7 4 25 -10 25 -5 0 -11 -4 -15
-9z"/>
<path d="M2895 1761 c-6 -11 13 -26 22 -17 4 3 1 6 -6 6 -7 0 -9 5 -6 10 3 6
4 10 1 10 -3 0 -7 -4 -11 -9z"/>
<path d="M1800 1675 l0 -65 -52 0 c-38 0 -49 -3 -38 -10 8 -5 32 -10 53 -10
33 0 37 -3 37 -25 0 -21 -5 -25 -30 -25 -16 0 -30 -5 -30 -11 0 -7 12 -10 30
-7 24 4 30 1 30 -13 0 -12 -10 -19 -32 -22 l-33 -4 33 -1 c37 -2 43 -18 10
-25 l-23 -4 23 -2 c17 -1 22 -7 22 -30 0 -27 -4 -30 -37 -34 l-38 -4 43 -1 42
-2 0 180 c0 99 -2 180 -5 180 -3 0 -5 -29 -5 -65z"/>
<path d="M2847 1734 c-8 -8 1 -24 14 -24 5 0 9 7 9 15 0 15 -12 20 -23 9z"/>
<path d="M2406 1591 c-48 -10 -44 -31 6 -30 60 2 101 12 106 27 4 13 -58 15
-112 3z"/>
<path d="M2350 1476 c14 -6 31 -16 38 -23 7 -7 36 -13 63 -13 47 0 50 2 47 23
-3 21 -8 22 -88 23 -69 1 -80 -1 -60 -10z"/>
<path d="M3700 1459 c0 -25 33 -22 38 4 2 12 -3 17 -17 17 -15 0 -21 -6 -21
-21z"/>
<path d="M3661 1434 c0 -11 3 -14 6 -6 3 7 2 16 -1 19 -3 4 -6 -2 -5 -13z"/>
<path d="M3074 1385 c-4 -9 -2 -21 4 -27 15 -15 44 -1 40 19 -4 23 -36 29 -44
8z m36 -5 c0 -5 -7 -10 -15 -10 -8 0 -15 5 -15 10 0 6 7 10 15 10 8 0 15 -4
15 -10z"/>
<path d="M3651 1384 c0 -11 3 -14 6 -6 3 7 2 16 -1 19 -3 4 -6 -2 -5 -13z"/>
<path d="M3641 1344 c0 -11 3 -14 6 -6 3 7 2 16 -1 19 -3 4 -6 -2 -5 -13z"/>
<path d="M3626 1305 c-9 -26 -7 -32 5 -12 6 10 9 21 6 23 -2 3 -7 -2 -11 -11z"/>
<path d="M3605 1251 c-14 -44 -105 -169 -159 -219 -111 -100 -219 -149 -369
-167 -31 -3 -136 -6 -231 -6 -167 -1 -178 1 -260 29 -74 26 -87 28 -98 15 -16
-19 -1 -42 43 -68 32 -19 52 -20 379 -20 363 0 398 4 420 46 16 28 13 62 -5
55 -33 -12 -11 11 41 44 74 47 173 153 219 235 21 36 35 68 32 71 -3 3 -8 -4
-12 -15z"/>
<path d="M2853 1155 c-7 -20 2 -29 21 -22 9 4 13 13 10 22 -8 19 -23 19 -31 0z"/>
</g>
</svg>