<?xml version="1.0" encoding="utf-8"?><!-- Uploaded to: SVG Repo, www.svgrepo.com, Generator: SVG Repo Mixer Tools -->
<svg fill="#000000" width="800px" height="800px" viewBox="0 0 24 24" id="soup-2" data-name="Flat Color"
     xmlns="http://www.w3.org/2000/svg" class="icon flat-color">
    <path id="secondary" d="M16,17H8a1,1,0,0,0-1,1v1a2,2,0,0,0,2,2h6a2,2,0,0,0,2-2V18A1,1,0,0,0,16,17Z"
          style="fill: rgb(44, 169, 188);"></path>
    <path id="primary" d="M20,9H4a1,1,0,0,0-1,1v4a5,5,0,0,0,5,5h8a5,5,0,0,0,5-5V10A1,1,0,0,0,20,9Z"
          style="fill: rgb(0, 0, 0);"></path>
    <path id="secondary-2"
          d="M21,11H3A1,1,0,0,1,3,9H21a1,1,0,0,1,0,2ZM16,7a1,1,0,0,1-1-1V4a1,1,0,0,1,2,0V6A1,1,0,0,1,16,7ZM12,7a1,1,0,0,1-1-1V4a1,1,0,0,1,2,0V6A1,1,0,0,1,12,7ZM8,7A1,1,0,0,1,7,6V4A1,1,0,0,1,9,4V6A1,1,0,0,1,8,7Z"
          style="fill: rgb(44, 169, 188);"></path>
</svg>