<?xml version="1.0" standalone="no"?>
<svg version="1.0" xmlns="http://www.w3.org/2000/svg"
     width="512.000000pt" height="512.000000pt" viewBox="0 0 512.000000 512.000000"
     preserveAspectRatio="xMidYMid meet">
    <metadata>
        Created by potrace 1.16, written by Peter Selinger 2001-2019
    </metadata>
    <g transform="translate(0.000000,512.000000) scale(0.100000,-0.100000)"
       fill="#000000" stroke="none">
        <path d="M2855 4105 c-27 -13 -102 -38 -165 -55 -184 -49 -299 -110 -395 -209
-27 -28 -54 -50 -60 -47 -6 2 -46 29 -90 61 -77 55 -306 195 -319 195 -7 0
-133 -85 -446 -300 l-185 -128 -52 5 c-76 8 -118 -3 -153 -40 -33 -35 -90
-141 -90 -166 0 -9 14 11 30 44 16 33 44 77 62 98 31 35 37 37 108 43 l75 6
-60 -53 c-33 -30 -72 -65 -88 -79 -56 -51 -101 -237 -95 -401 l3 -101 42 -38
43 -37 -51 -34 -52 -34 -1 -90 c-2 -110 -18 -142 -82 -169 -53 -22 -72 -49
-52 -76 7 -10 94 -83 193 -161 273 -216 795 -640 928 -753 195 -166 209 -176
221 -169 49 30 329 222 361 248 22 18 99 88 170 155 154 146 287 254 424 344
91 60 102 65 128 55 20 -7 45 -7 92 3 55 11 66 10 73 -2 5 -8 22 -39 39 -67
37 -66 51 -67 155 -9 181 100 740 419 752 428 18 15 15 52 -5 70 -10 8 -71 48
-135 88 -65 40 -118 76 -118 79 0 4 32 22 70 41 39 19 70 40 70 47 0 16 -84
64 -156 89 l-56 19 7 39 c8 54 38 100 80 125 19 11 35 24 35 29 0 5 -40 33
-90 62 -49 29 -90 57 -90 61 0 4 34 25 75 46 41 21 75 41 75 45 0 3 -37 28
-83 55 -46 26 -82 53 -81 58 4 13 -320 168 -486 233 -147 58 -192 80 -280 137
-64 41 -150 119 -150 136 0 8 -87 100 -93 98 -1 0 -24 -11 -52 -24z m125 -78
c0 -19 57 -81 114 -123 74 -56 188 -114 361 -184 72 -29 188 -82 258 -117 114
-57 127 -66 115 -80 -11 -14 -10 -16 13 -10 19 5 36 -1 67 -24 23 -17 42 -32
42 -34 0 -1 -33 -22 -72 -46 -119 -70 -259 -164 -331 -224 -121 -100 -220
-243 -263 -377 l-18 -58 -29 53 c-46 79 -136 161 -234 209 -80 40 -87 42 -176
41 -66 0 -112 -7 -162 -23 -87 -28 -222 -94 -304 -149 l-62 -42 -187 119
c-195 124 -741 464 -826 514 -26 16 -53 27 -59 25 -5 -1 119 -84 276 -182 158
-99 401 -252 541 -341 l254 -161 61 42 c188 131 398 200 531 175 81 -15 156
-57 233 -130 77 -72 127 -149 126 -195 0 -28 -2 -26 -23 20 -45 99 -111 154
-219 182 -153 39 -355 -15 -598 -159 l-66 -39 -354 232 c-696 455 -881 581
-873 588 36 31 699 491 708 491 12 0 169 -92 261 -153 113 -76 235 -177 269
-225 14 -20 26 -30 26 -22 0 9 -11 31 -24 50 l-24 35 31 35 32 35 -35 -32 -36
-33 -33 31 -34 30 44 46 c97 100 218 164 404 213 64 18 136 40 158 49 l42 18
37 -31 c21 -17 38 -35 38 -39z m-1905 -567 c-11 -12 -15 -24 -9 -29 39 -34
189 -139 574 -401 245 -167 497 -339 560 -383 195 -136 194 -136 165 -187 -17
-29 -19 -22 -5 14 6 18 6 26 -1 26 -11 0 -85 50 -304 205 -71 50 -296 206
-500 345 -458 314 -535 369 -535 380 0 11 49 50 63 50 6 0 2 -9 -8 -20z m2945
-39 c0 -3 -48 -31 -108 -60 -59 -30 -150 -83 -202 -118 -52 -35 -81 -52 -65
-38 32 28 256 179 315 212 32 18 60 20 60 4z m10 -202 c0 -3 -26 -9 -57 -13
-105 -12 -413 -131 -374 -144 6 -2 26 5 43 16 94 56 337 128 406 120 22 -3 16
-7 -33 -21 -143 -43 -195 -61 -271 -97 -178 -82 -308 -198 -374 -333 -22 -45
-46 -113 -54 -150 -13 -66 -29 -97 -42 -85 -10 10 23 160 49 225 36 90 91 168
178 254 94 93 181 157 279 202 67 31 71 35 43 36 -17 1 -44 -4 -60 -10 -37
-14 -22 -1 55 49 l63 40 74 -41 c41 -23 75 -45 75 -48z m-2570 -257 c286 -196
650 -458 650 -469 0 -3 -6 -1 -12 4 -29 22 -470 331 -695 487 -134 92 -243
170 -243 172 0 5 152 -93 300 -194z m2448 133 c-3 -3 -42 -23 -88 -45 -153
-74 -333 -207 -399 -295 -12 -16 -18 -21 -12 -9 30 63 154 173 286 254 86 53
240 121 213 95z m-9 -69 c-9 -9 -113 -45 -117 -41 -3 2 8 10 24 16 16 6 38 15
49 19 21 9 51 13 44 6z m209 -97 c28 -17 52 -32 52 -35 0 -11 -83 -35 -188
-54 -258 -46 -424 -121 -541 -244 -55 -59 -69 -53 -23 10 102 140 309 241 562
274 52 7 109 16 125 20 28 8 28 8 -12 9 -35 1 -45 6 -64 33 l-23 31 30 -7 c16
-4 53 -21 82 -37z m-221 15 c-3 -3 -12 -4 -19 -1 -8 3 -5 6 6 6 11 1 17 -2 13
-5z m-2519 -302 c627 -472 863 -642 940 -681 l42 -22 -30 -57 c-38 -72 -38
-86 -1 -36 58 77 418 432 506 498 128 96 238 147 328 154 77 5 88 -11 15 -22
-63 -10 -210 -86 -313 -163 -49 -37 -180 -156 -290 -264 -183 -180 -282 -266
-292 -255 -7 7 19 86 28 86 10 0 32 40 26 46 -2 3 -27 -7 -55 -21 l-51 -26
-83 58 c-46 31 -258 188 -473 348 -214 160 -463 344 -553 410 -89 65 -158 123
-154 127 5 5 65 -33 133 -84 68 -51 217 -159 329 -240 113 -81 282 -204 375
-274 200 -148 365 -265 365 -259 0 7 -164 127 -998 734 -101 73 -181 136 -178
139 6 5 59 40 64 41 1 1 145 -106 320 -237z m1477 227 c-94 -14 -219 -58 -365
-132 -74 -37 -124 -58 -110 -46 32 27 185 104 270 136 80 30 172 51 225 51 32
0 28 -2 -20 -9z m217 -72 c68 -39 68 -51 1 -19 -54 25 -67 27 -191 27 -121 0
-129 1 -90 12 24 7 86 11 138 10 84 -2 101 -6 142 -30z m968 -2 c7 -8 40 -31
73 -52 l60 -36 -26 -14 c-38 -19 -172 -49 -332 -73 -170 -25 -273 -52 -343
-90 -60 -32 -77 -24 -31 14 63 53 128 76 325 116 124 25 235 63 221 76 -2 2
-36 -2 -76 -11 -102 -21 -108 -18 -18 11 60 19 77 29 77 44 0 11 9 20 23 23
12 2 25 5 28 6 4 0 12 -6 19 -14z m-85 -4 c-8 -8 -161 -52 -265 -76 -76 -18
61 31 155 56 128 33 122 32 110 20z m-900 -85 c63 -19 151 -79 175 -119 31
-50 24 -55 -17 -13 -21 22 -60 50 -88 62 -133 63 -356 0 -497 -139 -65 -65
-61 -45 7 30 96 106 245 192 336 193 20 0 57 -6 84 -14z m-1994 -13 c13 -16
12 -17 -3 -4 -10 7 -18 15 -18 17 0 8 8 3 21 -13z m3222 -57 c9 -6 17 -14 17
-17 0 -4 -120 -73 -267 -154 -148 -82 -330 -184 -407 -227 -76 -43 -144 -78
-152 -78 -7 0 -27 20 -43 44 -27 39 -29 45 -15 57 24 20 37 49 49 109 10 53
12 56 65 82 30 14 91 34 135 42 44 9 127 26 185 37 100 19 299 79 329 98 13 8
13 12 1 26 -24 29 8 37 50 13 19 -12 43 -27 53 -32z m-3182 27 c13 -16 12 -17
-3 -4 -10 7 -18 15 -18 17 0 8 8 3 21 -13z m359 -262 c135 -102 310 -234 390
-294 149 -112 208 -161 110 -91 -96 68 -784 586 -800 602 -25 26 46 -26 300
-217z m1613 218 c22 -6 37 -13 34 -15 -2 -3 -33 -9 -68 -15 -141 -23 -339
-136 -501 -289 l-87 -81 20 50 c28 66 93 177 100 171 3 -3 25 12 48 33 142
128 316 185 454 146z m-2193 -87 c0 -5 28 -31 63 -59 34 -27 285 -228 557
-446 272 -217 525 -420 561 -451 l67 -56 98 72 c150 108 224 171 403 343 174
166 302 271 410 335 171 101 198 81 34 -26 -158 -102 -225 -157 -444 -364
-167 -159 -324 -282 -482 -379 -23 -14 -34 -6 -273 190 -137 112 -426 345
-641 518 -216 172 -390 317 -387 322 7 11 34 12 34 1z m2214 -7 c-139 -26
-289 -102 -463 -234 -51 -40 -95 -71 -97 -69 -5 6 159 135 233 184 130 86 255
133 353 132 40 0 38 -1 -26 -13z m-605 -147 c-7 -13 -28 -59 -46 -103 -19 -44
-31 -67 -28 -50 8 36 71 175 80 175 3 0 0 -10 -6 -22z m-347 -468 c18 -11 29
-20 25 -20 -11 0 -67 29 -67 35 0 9 9 5 42 -15z"/>
        <path d="M2750 3944 c-95 -28 -248 -105 -282 -142 -16 -16 6 -7 65 29 49 29
137 69 199 90 101 34 136 50 112 48 -5 0 -47 -11 -94 -25z"/>
        <path d="M2926 3887 c15 -41 214 -154 439 -250 83 -35 194 -86 249 -114 l98
-49 -113 -76 c-134 -90 -236 -180 -296 -262 -64 -86 -52 -89 17 -3 75 93 164
170 308 265 l113 75 -81 44 c-45 24 -139 69 -209 100 -265 115 -409 190 -494
256 -20 16 -34 22 -31 14z"/>
        <path d="M1679 3826 c-163 -97 -447 -301 -435 -313 2 -2 76 47 163 109 88 63
212 147 276 187 64 40 117 75 117 77 0 10 -22 -1 -121 -60z"/>
        <path d="M2605 3821 c-64 -30 -150 -89 -142 -97 2 -3 31 13 63 36 33 22 86 51
119 65 33 13 51 25 40 25 -11 0 -47 -13 -80 -29z"/>
        <path d="M2581 3765 c-66 -41 -106 -80 -46 -45 76 45 115 70 115 75 0 10 -16
3 -69 -30z"/>
        <path d="M2614 3734 c-64 -38 -97 -65 -90 -72 3 -2 20 8 39 22 19 14 58 40 88
56 30 16 47 30 38 30 -8 0 -42 -16 -75 -36z"/>
        <path d="M2845 3753 c-60 -24 -165 -95 -205 -138 -28 -30 -19 -25 42 23 67 53
101 72 208 120 39 17 0 13 -45 -5z"/>
        <path d="M2920 3664 c-73 -44 -160 -119 -160 -137 0 -5 29 18 65 51 36 33 96
76 133 95 37 20 60 37 52 37 -9 0 -49 -21 -90 -46z"/>
        <path d="M2745 3653 c-60 -43 -105 -84 -105 -95 0 -7 102 73 150 118 25 24 7
15 -45 -23z"/>
        <path d="M2991 3660 c-67 -37 -161 -107 -161 -120 0 -6 28 12 63 38 34 27 87
63 117 81 30 17 51 31 45 31 -5 0 -34 -14 -64 -30z"/>
        <path d="M3053 3640 c-43 -25 -86 -61 -57 -49 21 9 124 71 124 75 0 9 -18 2
-67 -26z"/>
        <path d="M1783 3616 c-91 -56 -223 -155 -223 -168 0 -11 17 0 60 38 28 25 214
150 233 157 6 2 10 7 7 10 -3 3 -38 -14 -77 -37z"/>
        <path d="M2722 3578 c-29 -28 -50 -53 -48 -55 2 -2 30 21 62 52 32 30 54 55
48 55 -5 0 -33 -23 -62 -52z"/>
        <path d="M1525 3574 c-72 -54 -83 -64 -68 -64 6 0 39 23 74 51 77 61 75 59 63
59 -5 0 -36 -21 -69 -46z"/>
        <path d="M1805 3576 c-38 -24 -71 -49 -73 -56 -5 -15 -3 -14 83 44 70 46 83
56 70 55 -6 0 -41 -20 -80 -43z"/>
        <path d="M2173 3583 c4 -6 28 -16 54 -22 26 -7 79 -27 118 -45 103 -48 449
-241 668 -372 184 -111 251 -141 119 -55 -273 181 -722 433 -842 474 -66 22
-124 32 -117 20z"/>
        <path d="M2493 3583 c10 -16 167 -116 173 -111 3 3 -30 28 -73 55 -104 66
-107 68 -100 56z"/>
        <path d="M2882 3526 c-31 -29 -64 -55 -71 -58 -13 -4 -13 -5 1 -10 10 -4 36
15 79 58 77 78 70 85 -9 10z"/>
        <path d="M3167 3543 c-26 -19 -46 -38 -43 -40 5 -5 106 65 106 73 0 10 -19 1
-63 -33z"/>
        <path d="M1552 3541 c-41 -30 -60 -51 -45 -51 10 1 101 79 92 80 -3 0 -24 -13
-47 -29z"/>
        <path d="M1908 3534 c-38 -19 -68 -39 -68 -44 0 -6 -3 -9 -7 -8 -15 4 -52 -22
-58 -42 -4 -11 -10 -18 -14 -16 -4 3 -21 -8 -36 -24 -16 -17 -24 -30 -19 -30
5 0 15 9 22 20 7 12 17 18 22 15 5 -3 19 9 30 27 11 18 20 29 20 23 0 -5 7 -2
14 8 8 10 18 19 23 19 4 0 26 11 48 23 22 13 52 29 68 36 15 7 27 16 27 21 0
10 6 12 -72 -28z"/>
        <path d="M3212 3529 c-23 -17 -42 -33 -42 -35 0 -8 60 30 77 49 24 25 12 21
-35 -14z"/>
        <path d="M2927 3501 c-29 -27 -49 -52 -46 -55 3 -3 30 19 59 49 68 68 57 73
-13 6z"/>
        <path d="M1787 3515 c-20 -14 -37 -28 -37 -31 0 -7 59 29 72 44 16 18 7 15
-35 -13z"/>
        <path d="M1942 3505 c-63 -36 -102 -65 -102 -76 0 -6 15 1 34 16 18 14 57 39
87 55 30 16 47 30 39 30 -8 0 -34 -11 -58 -25z"/>
        <path d="M2975 3460 c-77 -78 -63 -78 18 0 34 33 57 60 52 60 -6 0 -37 -27
-70 -60z"/>
        <path d="M3298 3472 c-69 -53 -218 -218 -218 -242 0 -8 12 0 28 20 77 98 152
177 210 221 36 27 60 49 54 49 -6 0 -39 -22 -74 -48z"/>
        <path d="M3364 3467 c-63 -46 -184 -172 -184 -191 1 -6 10 0 21 14 46 57 124
131 175 166 30 21 54 41 54 46 0 12 -1 11 -66 -35z"/>
        <path d="M2048 3447 c-88 -48 -224 -150 -207 -156 6 -2 25 10 42 26 51 48 96
78 187 127 47 25 78 46 70 46 -8 0 -50 -19 -92 -43z"/>
        <path d="M2988 3421 c-37 -39 -68 -76 -68 -83 1 -7 10 -2 21 12 44 53 56 66
99 102 25 21 38 38 30 38 -8 0 -45 -31 -82 -69z"/>
        <path d="M1637 3456 c-15 -12 -25 -25 -21 -28 3 -4 18 4 32 17 34 31 25 40
-11 11z"/>
        <path d="M1691 3438 c-23 -18 -37 -34 -30 -37 6 -2 28 13 47 33 45 45 39 46
-17 4z"/>
        <path d="M3409 3440 c-69 -47 -94 -68 -88 -75 4 -3 38 17 75 46 83 62 80 59
67 59 -5 0 -29 -13 -54 -30z"/>
        <path d="M1875 3395 c-44 -35 -81 -69 -84 -76 -2 -6 34 19 80 56 103 83 106
85 94 85 -6 0 -46 -29 -90 -65z"/>
        <path d="M2105 3429 c-65 -34 -197 -122 -216 -145 -28 -33 1 -20 54 25 32 26
101 71 155 99 53 28 90 52 82 52 -8 0 -42 -14 -75 -31z"/>
        <path d="M3075 3430 c-16 -16 -24 -30 -19 -30 6 0 23 14 39 30 16 17 24 30 19
30 -6 0 -23 -13 -39 -30z"/>
        <path d="M3125 3440 c-3 -5 -1 -10 4 -10 6 0 11 5 11 10 0 6 -2 10 -4 10 -3 0
-8 -4 -11 -10z"/>
        <path d="M3454 3418 c-59 -39 -159 -141 -210 -215 -52 -76 -36 -77 19 -1 54
76 124 148 194 200 47 34 61 48 50 48 -2 0 -26 -14 -53 -32z"/>
        <path d="M2173 3410 c-53 -24 -122 -70 -189 -126 -28 -24 -53 -42 -55 -41 -3
1 -1 -2 3 -7 4 -5 24 6 45 26 50 45 123 95 198 135 66 36 64 44 -2 13z"/>
        <path d="M3174 3406 c-10 -8 -16 -17 -13 -20 3 -3 14 3 24 14 21 23 17 26 -11
6z"/>
        <path d="M1759 3370 c-13 -10 -19 -19 -13 -20 6 0 19 9 29 20 23 26 14 26 -16
0z"/>
        <path d="M2300 3371 c-30 -10 -75 -28 -98 -40 -56 -28 -144 -92 -138 -98 3 -3
27 11 55 31 61 45 163 92 239 111 40 9 48 13 27 14 -16 0 -55 -8 -85 -18z"/>
        <path d="M2976 3351 c-16 -16 -27 -34 -25 -40 2 -6 17 5 32 25 36 44 30 54 -7
15z"/>
        <path d="M2450 3353 c-72 -7 -132 -24 -197 -53 -36 -17 -64 -32 -61 -35 3 -3
29 6 59 19 72 33 162 56 222 56 29 0 46 4 42 10 -3 6 -12 9 -18 8 -7 0 -28 -3
-47 -5z"/>
        <path d="M3007 3325 c-15 -19 -23 -35 -18 -35 11 0 55 59 49 65 -2 2 -16 -11
-31 -30z"/>
        <path d="M3245 3293 c-47 -60 -64 -101 -20 -48 73 87 86 105 76 105 -6 0 -31
-26 -56 -57z"/>
        <path d="M3099 3323 c-13 -15 -12 -15 9 -4 23 12 28 21 13 21 -5 0 -15 -7 -22
-17z"/>
        <path d="M2416 3304 c-65 -14 -173 -60 -164 -70 3 -2 30 7 60 20 55 24 114 38
233 55 l60 9 -60 0 c-33 0 -91 -6 -129 -14z"/>
        <path d="M3027 3293 c-4 -3 -7 -11 -7 -17 0 -6 5 -5 12 2 6 6 9 14 7 17 -3 3
-9 2 -12 -2z"/>
        <path d="M2483 3273 c-18 -2 -33 -8 -33 -13 0 -5 15 -6 33 -3 17 4 64 8 104 8
39 0 69 3 66 8 -4 7 -110 7 -170 0z"/>
        <path d="M2325 3226 c-66 -32 -45 -33 31 -1 32 13 50 24 39 24 -11 1 -42 -10
-70 -23z"/>
        <path d="M3119 3233 c-13 -16 -12 -17 4 -4 16 13 21 21 13 21 -2 0 -10 -8 -17
-17z"/>
        <path d="M3157 3232 c-19 -20 -23 -37 -7 -27 10 6 33 45 27 45 -2 0 -11 -8
-20 -18z"/>
        <path d="M2520 3233 c-78 -13 -243 -87 -299 -134 -43 -35 -15 -31 40 7 127 87
277 130 409 119 53 -4 71 -3 60 4 -14 10 -158 13 -210 4z"/>
        <path d="M2122 3206 c-29 -17 -38 -26 -25 -26 6 0 21 9 34 20 27 22 24 24 -9
6z"/>
        <path d="M2020 3190 c0 -13 18 -22 24 -11 3 5 -1 11 -9 15 -8 3 -15 1 -15 -4z"/>
        <path d="M2545 3193 c-73 -16 -183 -60 -237 -95 -74 -47 -73 -47 -66 -53 3 -3
34 14 70 38 57 37 138 69 268 105 28 8 30 10 10 10 -14 0 -34 -2 -45 -5z"/>
        <path d="M2681 3191 c31 -4 62 -12 70 -16 11 -6 12 -5 2 5 -7 7 -38 15 -70 16
l-58 3 56 -8z"/>
        <path d="M3170 3184 c0 -8 5 -12 10 -9 6 4 8 11 5 16 -9 14 -15 11 -15 -7z"/>
        <path d="M2220 3179 c0 -5 5 -7 10 -4 6 3 10 8 10 11 0 2 -4 4 -10 4 -5 0 -10
-5 -10 -11z"/>
        <path d="M2190 3165 c-11 -13 -10 -14 4 -9 9 3 16 10 16 15 0 13 -6 11 -20 -6z"/>
        <path d="M2250 3170 c0 -5 5 -10 11 -10 5 0 7 5 4 10 -3 6 -8 10 -11 10 -2 0
-4 -4 -4 -10z"/>
        <path d="M2065 3160 c-3 -5 -2 -10 4 -10 5 0 13 5 16 10 3 6 2 10 -4 10 -5 0
-13 -4 -16 -10z"/>
        <path d="M2580 3144 c-94 -25 -322 -144 -276 -144 9 0 36 13 59 29 108 73 211
109 351 121 l91 7 -85 1 c-47 0 -110 -6 -140 -14z"/>
        <path d="M2105 3140 c-3 -5 1 -10 9 -10 8 0 18 5 21 10 3 6 -1 10 -9 10 -8 0
-18 -4 -21 -10z"/>
        <path d="M2150 3110 c0 -5 5 -10 10 -10 6 0 10 5 10 10 0 6 -4 10 -10 10 -5 0
-10 -4 -10 -10z"/>
        <path d="M2317 3055 c-20 -14 -37 -28 -37 -31 0 -6 49 20 75 40 33 25 2 18
-38 -9z"/>
    </g>
</svg>