<?xml version="1.0" standalone="no"?>
<svg version="1.0" xmlns="http://www.w3.org/2000/svg"
     width="512.000000pt" height="512.000000pt" viewBox="0 0 512.000000 512.000000"
     preserveAspectRatio="xMidYMid meet">
    <metadata>
        Created by potrace 1.16, written by Peter Selinger 2001-2019
    </metadata>
    <g transform="translate(0.000000,512.000000) scale(0.100000,-0.100000)"
       fill="#000000" stroke="none">
        <path d="M2432 4284 c-25 -17 -25 -20 -6 -111 10 -49 -1 -77 -36 -90 -17 -6
-34 -22 -40 -38 -12 -30 -4 -50 45 -110 28 -36 29 -42 38 -189 16 -252 -12
-475 -85 -696 -18 -56 -108 -247 -218 -465 -231 -458 -296 -621 -386 -965 -29
-113 -80 -386 -89 -486 -18 -185 77 -280 280 -278 52 0 94 6 119 17 48 21 182
37 301 36 l90 0 -85 -28 c-86 -27 -170 -68 -170 -82 0 -4 10 -11 23 -15 31
-11 746 -6 782 5 l30 9 -35 15 c-128 55 -369 65 -572 23 -70 -14 -135 -26
-145 -25 -34 1 72 41 187 70 210 54 401 54 646 -1 131 -29 138 -30 163 -13
l26 17 -32 12 c-105 44 -503 70 -663 45 -41 -6 -142 -13 -225 -16 -82 -2 -176
-7 -208 -11 l-58 -7 79 124 c43 68 138 221 212 339 73 118 138 221 145 228 10
11 20 -1 55 -60 85 -144 233 -383 243 -393 14 -14 -38 78 -193 340 -232 391
-268 449 -283 467 -9 9 -14 18 -12 20 10 10 -172 323 -193 334 -12 6 -25 13
-28 16 -3 3 42 101 100 217 58 116 106 214 106 218 0 5 -54 -93 -119 -217 -65
-124 -136 -259 -159 -300 -22 -41 -61 -126 -87 -187 -47 -116 -118 -348 -112
-367 2 -5 9 12 17 40 28 102 158 414 173 414 1 0 2 -251 2 -558 0 -631 5 -595
-82 -628 -38 -15 -53 -16 -106 -6 -86 16 -162 55 -177 91 -16 39 -2 155 50
411 62 308 151 550 327 890 321 619 334 649 372 835 30 150 41 255 41 397 l0
128 144 0 c79 0 164 3 190 6 l46 7 0 -44 c2 -158 131 -571 260 -830 55 -110
99 -184 250 -424 76 -119 162 -298 201 -417 91 -280 75 -666 -43 -1028 -50
-155 -117 -229 -238 -265 -21 -6 -18 -2 15 28 80 69 138 214 226 560 60 236
62 245 62 377 1 154 -19 276 -60 370 -14 33 -28 58 -30 56 -3 -3 6 -53 20
-113 63 -266 57 -430 -28 -757 -31 -118 -88 -268 -93 -244 -2 10 6 96 17 191
26 221 41 460 40 657 -1 180 -10 225 -28 138 -7 -32 -15 -58 -19 -58 -4 0 -20
44 -37 98 -43 141 -118 286 -256 494 -186 279 -215 336 -254 495 -9 40 -21 70
-26 67 -6 -3 -7 5 -3 20 4 16 2 26 -5 26 -6 0 -11 10 -12 23 0 12 -5 31 -10
42 -24 54 29 -346 66 -490 30 -118 58 -169 146 -260 67 -70 181 -246 238 -368
132 -282 164 -699 83 -1082 -21 -100 -58 -156 -133 -202 -96 -59 -164 -66
-629 -67 -363 -1 -413 1 -485 18 -99 23 -214 65 -297 108 -35 18 -67 35 -72
37 -18 8 54 -87 93 -122 l41 -37 -47 0 c-102 0 -244 -13 -231 -21 17 -11 212
-11 259 0 28 6 40 4 58 -11 13 -10 49 -26 80 -36 50 -15 109 -17 566 -17 677
0 740 9 875 118 100 81 149 180 204 405 41 170 50 249 50 447 1 216 -12 300
-70 467 -46 132 -120 277 -235 459 -183 289 -257 435 -334 659 -76 221 -105
349 -112 485 -8 174 0 223 48 287 52 69 51 105 -3 131 -36 18 -38 21 -38 67 0
27 4 60 10 74 7 19 5 30 -10 48 -18 23 -22 23 -247 26 -199 2 -231 1 -251 -14z
m260 -13 c58 -1 68 -4 66 -18 -4 -57 3 -153 13 -153 7 0 9 29 7 85 -3 76 -1
85 15 85 15 0 17 -11 17 -85 0 -54 4 -85 11 -85 7 0 9 29 7 84 -2 46 0 82 5
79 4 -2 7 -38 7 -78 0 -71 1 -75 28 -89 25 -14 7 -15 -196 -16 -217 0 -222 0
-212 19 15 29 12 94 -6 119 -32 45 2 60 131 56 22 -1 70 -2 107 -3z m-142
-241 c-47 -4 -104 -10 -127 -14 -36 -7 -43 -5 -43 8 0 14 17 16 128 15 l127
-2 -85 -7z m393 -7 c-13 -2 -35 -2 -50 0 -16 2 -5 4 22 4 28 0 40 -2 28 -4z
m-104 -33 c35 -5 65 -11 68 -14 3 -2 -4 -30 -16 -61 -12 -31 -21 -75 -21 -100
0 -73 -3 -76 -63 -57 -37 11 -91 16 -188 17 l-137 0 -5 64 c-4 37 -15 78 -27
98 -12 20 -18 38 -16 41 19 18 303 27 405 12z m8 -982 c-3 -8 -6 -5 -6 6 -1
11 2 17 5 13 3 -3 4 -12 1 -19z m82 -279 c17 -41 52 -102 79 -136 26 -34 73
-94 104 -135 90 -117 164 -242 207 -351 63 -163 103 -419 99 -647 -1 -103 -1
-102 -9 47 -21 405 -117 651 -351 900 -124 133 -151 192 -188 418 -26 157 -25
181 4 69 13 -49 38 -124 55 -165z m-709 -537 c29 -48 61 -103 72 -122 l20 -35
-20 25 c-24 28 -142 217 -142 225 0 17 24 -14 70 -93z"/>
        <path d="M2582 4210 c0 -50 1 -52 8 -21 5 19 4 44 0 55 -6 15 -9 5 -8 -34z"/>
        <path d="M2641 4203 c2 -98 17 -119 18 -25 1 48 -3 82 -9 82 -6 0 -10 -25 -9
-57z"/>
        <path d="M2700 4180 c0 -47 4 -80 10 -80 6 0 10 33 10 80 0 47 -4 80 -10 80
-6 0 -10 -33 -10 -80z"/>
        <path d="M2673 3963 c37 -2 96 -2 130 0 34 2 4 3 -68 3 -71 0 -99 -1 -62 -3z"/>
        <path d="M2628 3395 c-4 -44 -10 -125 -14 -180 -15 -252 -66 -522 -144 -755
-26 -80 -47 -146 -45 -148 4 -5 94 241 120 333 55 189 101 560 93 750 l-3 80
-7 -80z"/>
        <path d="M2093 3225 c0 -27 2 -38 4 -22 2 15 2 37 0 50 -2 12 -4 0 -4 -28z"/>
        <path d="M2081 3135 c-2 -41 -34 -158 -61 -225 -31 -79 -114 -198 -229 -330
-114 -130 -159 -207 -195 -333 -52 -179 -103 -528 -113 -765 -5 -131 -3 -175
18 -308 13 -86 25 -152 27 -146 2 6 -6 74 -18 151 -18 126 -19 156 -10 283 21
267 87 667 134 806 37 109 78 177 177 297 110 134 170 223 208 307 35 77 74
228 68 266 l-4 27 -2 -30z"/>
        <path d="M2994 2390 c-42 -17 -40 -66 2 -76 28 -7 74 19 74 41 0 7 -10 21 -22
29 -25 18 -25 18 -54 6z m51 -20 c9 -15 -14 -40 -36 -40 -24 0 -33 18 -19 35
14 17 46 20 55 5z"/>
        <path d="M2943 2083 c-20 -7 -15 -23 7 -23 11 0 20 4 20 9 0 13 -12 19 -27 14z"/>
        <path d="M1607 1338 c-19 -117 -33 -266 -41 -413 l-4 -100 9 85 c33 280 58
524 55 527 -2 2 -10 -43 -19 -99z"/>
        <path d="M1531 984 c0 -11 3 -14 6 -6 3 7 2 16 -1 19 -3 4 -6 -2 -5 -13z"/>
        <path d="M3398 703 c12 -2 30 -2 40 0 9 3 -1 5 -23 4 -22 0 -30 -2 -17 -4z"/>
        <path d="M3468 703 c7 -3 16 -2 19 1 4 3 -2 6 -13 5 -11 0 -14 -3 -6 -6z"/>
        <path d="M4318 663 c6 -2 18 -2 25 0 6 3 1 5 -13 5 -14 0 -19 -2 -12 -5z"/>
        <path d="M4573 633 c9 -2 23 -2 30 0 6 3 -1 5 -18 5 -16 0 -22 -2 -12 -5z"/>
        <path d="M1839 611 c60 -16 185 -23 211 -12 21 8 17 10 -31 10 -31 1 -92 3
-135 6 -58 3 -70 2 -45 -4z"/>
        <path d="M3908 603 c6 -2 18 -2 25 0 6 3 1 5 -13 5 -14 0 -19 -2 -12 -5z"/>
    </g>
</svg>