<?xml version="1.0" standalone="no"?>
<!DOCTYPE svg PUBLIC "-//W3C//DTD SVG 20010904//EN"
 "http://www.w3.org/TR/2001/REC-SVG-20010904/DTD/svg10.dtd">
<svg version="1.0" xmlns="http://www.w3.org/2000/svg"
 width="512.000000pt" height="512.000000pt" viewBox="0 0 512.000000 512.000000"
 preserveAspectRatio="xMidYMid meet">
<metadata>
Created by potrace 1.16, written by Peter Selinger 2001-2019
</metadata>
<g transform="translate(0.000000,512.000000) scale(0.100000,-0.100000)"
fill="#000000" stroke="none">
<path d="M3134 4662 c-18 -12 -38 -57 -112 -257 -78 -212 -115 -328 -167 -524
-40 -153 -41 -158 -18 -184 17 -18 17 -20 -10 -43 -20 -17 -40 -24 -72 -24
-24 0 -47 -5 -50 -10 -5 -8 -11 -7 -21 1 -7 6 -11 16 -7 22 3 5 2 7 -4 4 -12
-8 -55 21 -48 33 3 4 -3 14 -12 21 -12 10 -14 10 -9 2 11 -19 -9 -16 -25 4
-10 11 -10 14 -1 9 18 -11 15 -1 -5 15 -11 10 -14 10 -9 2 22 -38 -64 25 -137
100 -26 27 -53 47 -60 44 -6 -2 -20 -18 -30 -35 -26 -44 -15 -57 138 -169 72
-53 134 -99 139 -103 9 -9 -21 -56 -144 -220 -121 -162 -266 -368 -342 -485
-131 -205 -105 -171 137 170 109 154 234 327 276 385 82 111 156 177 213 190
30 6 36 4 47 -16 7 -13 14 -22 17 -19 8 7 93 -56 87 -65 -3 -4 4 -6 14 -3 21
5 100 -47 556 -366 376 -263 656 -468 693 -506 56 -60 54 -65 -140 -360 -98
-150 -186 -291 -443 -710 -37 -60 -74 -118 -83 -127 -33 -38 -62 -24 -273 134
-112 83 -235 176 -274 207 -38 31 -74 54 -80 53 -5 -2 -7 0 -2 4 10 10 -33 54
-53 54 -10 0 -82 49 -161 108 -138 104 -561 410 -586 426 -7 4 -13 3 -13 -2 0
-6 104 -86 231 -179 127 -92 435 -322 685 -510 250 -188 454 -339 454 -335 0
4 4 1 9 -6 14 -23 74 15 108 67 17 25 101 159 187 298 86 139 230 368 321 509
181 282 183 288 145 373 -23 49 -25 72 -8 89 8 8 8 15 -3 29 -8 10 1 5 19 -10
19 -15 37 -27 41 -27 4 0 54 84 111 188 98 177 223 395 304 526 20 33 36 68
36 78 0 45 -40 84 -277 263 -302 229 -288 220 -233 159 30 -33 21 -26 -30 22
-91 86 -471 370 -896 671 -59 41 -103 53 -130 35z m246 -225 c96 -71 180 -135
186 -143 6 -8 16 -14 21 -14 6 0 18 -10 27 -22 9 -13 14 -17 10 -9 -4 8 10 2
32 -14 77 -58 96 -75 80 -75 -8 0 -18 5 -21 10 -4 6 -10 8 -15 5 -5 -3 -11 -1
-14 4 -3 5 -15 7 -26 4 -11 -3 -20 0 -20 6 0 6 -9 11 -21 11 -12 0 -17 -4 -14
-11 5 -7 -7 -9 -34 -6 -23 2 -44 0 -47 -5 -3 -5 -13 -8 -22 -6 -10 1 -21 0
-27 -3 -21 -13 -65 -19 -65 -10 0 6 -12 6 -31 1 -23 -7 -40 -5 -58 4 -14 7
-48 19 -75 25 -39 9 -51 9 -58 -1 -4 -7 -8 -8 -8 -3 0 13 -34 13 -68 1 -18 -6
-29 -3 -47 14 -20 19 -24 20 -38 6 -19 -19 -31 -21 -20 -3 4 6 8 19 10 27 3
18 121 348 129 362 7 11 21 2 234 -155z m-325 -237 c3 -5 1 -10 -4 -10 -6 0
-11 5 -11 10 0 6 2 10 4 10 3 0 8 -4 11 -10z m-70 -305 c17 -13 26 -24 20 -24
-5 0 -23 11 -40 24 -16 14 -25 25 -20 25 6 0 24 -11 40 -25z m210 -165 c153
-115 159 -124 25 -35 -175 116 -200 137 -200 159 0 18 3 17 33 -10 17 -17 82
-68 142 -114z m-769 97 c5 -8 2 -7 -9 2 -15 12 -20 10 -38 -13 -24 -31 -45
-35 -29 -6 6 11 8 26 4 32 -4 6 -3 8 4 4 6 -3 13 -2 17 4 7 12 39 -2 51 -23z
m513 -206 l23 -18 -25 -28 -25 -29 -41 29 c-55 37 -57 42 -31 70 22 23 24 24
50 9 14 -9 37 -24 49 -33z m79 -84 c22 -23 22 -57 1 -57 -12 0 -89 51 -89 58
0 3 7 14 16 23 19 21 36 15 72 -24z m157 -66 c-2 -5 2 -17 11 -27 14 -18 15
-18 4 4 -6 12 -8 22 -5 22 7 0 608 -421 840 -587 99 -71 141 -107 142 -122 1
-15 -4 -21 -19 -21 -23 0 -88 37 -88 50 0 19 34 18 61 -1 17 -12 32 -19 34
-17 7 6 -239 176 -248 171 -4 -3 -3 -11 4 -19 6 -8 9 -14 5 -14 -9 0 -101 71
-104 81 -2 5 -8 9 -14 9 -6 0 -42 24 -82 53 -39 30 -136 99 -216 154 -80 55
-179 124 -220 153 -41 30 -109 76 -150 103 -41 28 -77 52 -80 54 -3 3 3 11 13
18 17 12 25 9 68 -22 27 -19 47 -38 44 -42z"/>
<path d="M3210 3432 c6 -13 14 -21 18 -18 3 4 -2 14 -12 24 -18 16 -18 16 -6
-6z"/>
<path d="M3240 3412 c0 -8 183 -144 255 -188 17 -10 32 -21 35 -24 3 -3 33
-23 67 -45 35 -22 63 -43 63 -47 0 -5 6 -8 14 -8 8 0 16 -4 18 -8 2 -7 156
-121 196 -145 6 -5 12 -4 12 2 0 5 -66 56 -147 112 -153 106 -383 267 -465
326 -27 19 -48 30 -48 25z"/>
<path d="M2294 4627 c-9 -25 64 -557 80 -582 9 -13 69 -64 133 -114 65 -50
155 -121 201 -157 46 -36 85 -64 88 -61 12 11 104 392 99 407 -3 10 -69 73
-148 141 -244 213 -438 379 -443 379 -3 0 -7 -6 -10 -13z"/>
<path d="M2452 3814 c4 -5 28 -25 54 -44 26 -18 45 -29 42 -24 -4 5 -28 25
-54 44 -26 18 -45 29 -42 24z"/>
<path d="M1698 3793 c-25 -4 -27 -7 -17 -26 6 -12 22 -31 34 -42 l23 -20 -9
-220 c-5 -121 -13 -272 -17 -335 -7 -89 -5 -120 5 -136 18 -28 81 -62 130 -70
42 -6 84 13 270 127 80 49 103 51 32 2 -131 -89 -398 -303 -452 -362 -21 -23
-43 -38 -49 -35 -6 4 -8 3 -5 -3 4 -6 -29 -33 -71 -61 -43 -28 -136 -104 -208
-168 -134 -121 -418 -358 -467 -389 -22 -14 -33 -16 -51 -7 -13 6 -97 104
-186 219 -157 200 -289 365 -338 421 -20 23 -22 23 -13 5 7 -13 91 -125 189
-250 98 -126 222 -286 277 -358 55 -71 104 -133 110 -137 12 -9 59 -10 68 -2
3 4 -3 18 -13 32 -26 32 -25 42 4 42 22 0 59 26 301 215 l77 59 23 -26 23 -27
21 23 22 23 -21 35 -20 35 37 29 c21 15 119 96 218 179 231 194 437 362 547
448 48 37 90 72 93 77 7 11 -61 100 -104 137 -14 13 -20 23 -13 23 8 0 10 5 6
12 -5 7 -15 2 -31 -18 l-23 -29 0 33 c0 18 -7 47 -16 65 l-16 32 32 -35 c40
-45 28 -21 -25 50 -23 30 -61 84 -85 120 -24 36 -54 76 -66 89 -13 14 -20 29
-17 34 3 6 1 7 -5 3 -6 -4 -22 13 -38 41 -36 62 -112 153 -127 152 -7 -1 -24
-4 -39 -6z m194 -208 c191 -248 229 -303 98 -145 -30 36 -83 97 -120 135 -109
118 -148 164 -142 169 3 3 0 6 -6 6 -7 0 -12 5 -12 11 0 6 10 9 22 7 14 -2 67
-63 160 -183z m188 -426 c-60 -52 -255 -169 -281 -169 -14 0 -34 7 -45 16 -18
14 -18 15 4 4 32 -15 63 -3 156 60 85 57 188 120 196 120 3 -1 -11 -14 -30
-31z"/>
<path d="M2110 3653 c0 -5 21 -29 47 -53 l47 -45 -32 41 c-35 46 -62 71 -62
57z"/>
<path d="M2210 3544 c0 -6 7 -18 17 -25 9 -8 52 -54 96 -102 56 -63 77 -94 74
-108 -3 -10 -2 -17 3 -14 4 3 10 14 13 25 4 15 -20 45 -99 127 -56 60 -103
103 -104 97z"/>
<path d="M2669 3507 c-45 -56 -71 -97 -61 -97 5 0 21 18 36 40 29 45 39 44 98
-1 l37 -29 20 26 c11 14 24 23 29 20 5 -3 18 1 28 9 18 14 17 15 -9 9 -17 -4
-34 -1 -44 7 -12 10 -15 10 -9 2 11 -20 -1 -15 -46 17 -22 17 -44 30 -47 29
-3 0 -18 -15 -32 -32z"/>
<path d="M2651 3437 c-11 -17 -19 -32 -18 -33 1 -1 26 3 56 10 l54 12 -36 21
-36 22 -20 -32z"/>
<path d="M2826 3433 c-4 -11 0 -20 11 -27 10 -5 49 -40 86 -78 38 -37 74 -68
81 -68 7 0 21 9 30 19 17 18 16 20 -27 49 -41 29 -45 30 -61 14 -16 -16 -17
-16 -11 8 5 22 -2 30 -49 62 -46 33 -55 35 -60 21z"/>
<path d="M2628 3330 c-77 -42 -121 -128 -113 -218 6 -53 16 -73 56 -106 37
-31 44 -29 29 8 -52 139 82 299 226 268 24 -5 44 -6 44 -1 0 4 -16 20 -36 36
-49 37 -150 44 -206 13z"/>
<path d="M2920 3293 c0 -16 33 -93 40 -93 23 0 17 35 -10 66 -16 19 -30 31
-30 27z"/>
<path d="M3051 3276 c-9 -11 -4 -20 31 -45 48 -35 51 -36 67 -17 9 11 6 17
-14 30 -14 9 -36 23 -49 31 -20 13 -25 13 -35 1z"/>
<path d="M2316 3222 c-37 -33 -67 -63 -67 -66 2 -13 17 -4 61 34 25 22 53 45
64 53 10 8 17 20 14 27 -2 8 -29 -9 -72 -48z"/>
<path d="M1053 3230 c2 -11 9 -26 17 -33 10 -10 11 -9 4 3 -15 27 -13 46 3 23
9 -13 21 -23 29 -23 7 0 11 -6 8 -14 -3 -9 30 -43 94 -95 55 -44 106 -86 113
-93 18 -16 46 -21 53 -9 20 31 -256 261 -314 261 -5 0 -8 -9 -7 -20z"/>
<path d="M3001 3227 c-27 -29 -27 -29 8 -66 33 -36 51 -39 74 -13 24 27 21 48
-10 70 -47 32 -49 32 -72 9z"/>
<path d="M3157 3213 c-15 -14 -5 -32 28 -53 58 -36 79 -1 22 38 -36 24 -40 25
-50 15z"/>
<path d="M2952 3172 c8 -27 -17 -181 -36 -226 -21 -50 -20 -53 4 -25 l20 24
-11 -32 c-20 -61 -126 -126 -205 -126 l-41 0 105 -83 c57 -46 108 -81 113 -78
20 12 -8 -36 -56 -96 -69 -85 -265 -360 -265 -371 0 -8 60 -44 64 -37 1 2 44
59 96 128 110 146 172 220 183 220 5 0 57 -33 115 -74 59 -40 124 -85 146
-100 l38 -26 29 40 c16 22 29 44 29 49 0 4 -49 42 -110 83 l-109 75 26 24 c15
13 22 17 15 8 -11 -14 -8 -21 19 -43 l32 -27 28 33 28 33 -31 27 -32 28 33
-10 c18 -5 39 -14 47 -20 10 -9 19 -6 39 16 28 31 32 52 10 60 -8 4 -15 16
-15 28 0 12 -5 27 -11 33 -9 9 -4 21 20 48 17 20 31 38 31 40 0 3 -19 18 -42
35 -40 29 -42 30 -61 13 -19 -17 -19 -17 -7 3 11 19 10 26 -8 52 -30 42 -27
45 9 11 39 -36 52 -36 79 0 l21 30 -38 25 -37 26 -25 -23 c-23 -19 -24 -19 -8
-1 9 11 17 25 17 31 0 17 -66 54 -84 47 -10 -4 -16 -1 -16 9 0 21 -48 57 -66
50 -8 -3 -14 1 -14 8 -1 14 -55 79 -66 79 -3 0 -4 -8 -2 -18z m98 -127 c0 -8
-4 -15 -10 -15 -5 0 -7 7 -4 15 4 8 8 15 10 15 2 0 4 -7 4 -15z m94 -191 c3
-8 2 -12 -4 -9 -6 3 -10 10 -10 16 0 14 7 11 14 -7z m-224 -144 c0 -5 -5 -10
-11 -10 -5 0 -7 5 -4 10 3 6 8 10 11 10 2 0 4 -4 4 -10z m240 -56 c0 -8 -19
-13 -24 -6 -3 5 1 9 9 9 8 0 15 -2 15 -3z m90 -44 c0 -5 -5 -10 -11 -10 -5 0
-7 5 -4 10 3 6 8 10 11 10 2 0 4 -4 4 -10z"/>
<path d="M1065 3170 c-3 -4 36 -50 86 -102 51 -51 86 -84 79 -73 -8 11 13 -7
46 -40 91 -93 240 -215 262 -215 11 0 32 -10 48 -22 l29 -22 -22 25 c-11 13
-23 33 -25 44 -2 12 -10 19 -20 17 -18 -3 -32 14 -33 38 0 8 -7 15 -15 15 -21
0 -55 26 -81 61 -16 20 -8 15 27 -16 l49 -45 -44 47 c-25 27 -49 44 -57 41 -8
-3 -14 1 -14 9 0 8 -10 23 -22 34 l-23 19 20 -24 c41 -49 -8 -13 -132 99 -123
111 -147 127 -158 110z"/>
<path d="M3101 3151 c-27 -38 -27 -42 12 -67 l32 -20 28 32 27 32 -27 20 c-49
33 -51 33 -72 3z"/>
<path d="M3241 3143 c-7 -14 -2 -22 24 -40 39 -27 48 -28 64 -9 9 10 3 19 -27
40 -45 31 -48 31 -61 9z"/>
<path d="M3191 3091 c-28 -38 -27 -42 15 -71 36 -24 36 -24 51 -5 35 47 34 51
-7 79 l-39 26 -20 -29z"/>
<path d="M3342 3088 c-19 -19 -16 -22 47 -66 52 -37 60 -40 71 -26 15 17 15
16 -56 67 -39 28 -53 34 -62 25z"/>
<path d="M3281 3026 c-12 -18 -21 -36 -21 -38 0 -3 25 -22 55 -41 l54 -37 26
28 c14 15 25 29 25 33 0 5 -74 62 -106 82 -8 4 -20 -5 -33 -27z m89 -46 c-6
-11 -15 -20 -20 -20 -6 0 -5 9 2 20 7 11 16 20 21 20 4 0 3 -9 -3 -20z"/>
<path d="M675 3010 c-3 -5 6 -20 21 -32 15 -13 33 -29 41 -37 26 -26 286 -159
300 -154 13 5 18 35 7 46 -12 11 -33 -5 -27 -21 5 -14 3 -15 -7 -5 -10 10 -11
15 -1 27 14 17 22 11 -134 104 -64 39 -102 56 -107 49 -4 -7 -13 -6 -30 5 -34
22 -57 28 -63 18z"/>
<path d="M3471 2991 c-9 -15 -4 -23 27 -45 33 -23 38 -24 52 -10 13 13 12 17
-10 35 -48 38 -58 41 -69 20z"/>
<path d="M3407 2932 l-28 -29 39 -26 40 -26 28 30 c15 16 26 30 23 32 -51 39
-63 47 -68 47 -4 0 -20 -13 -34 -28z"/>
<path d="M3561 2926 c-9 -11 -4 -20 24 -44 35 -28 80 -39 91 -21 4 8 -82 78
-97 79 -4 0 -12 -6 -18 -14z"/>
<path d="M3276 2896 l-26 -35 29 -20 c38 -27 42 -27 75 8 l27 29 -28 19 c-15
11 -33 23 -39 26 -7 4 -23 -8 -38 -27z"/>
<path d="M3492 2871 l-22 -30 37 -30 38 -31 30 31 30 30 -35 30 c-43 36 -51
36 -78 0z"/>
<path d="M3355 2828 l-36 -43 28 -22 c26 -21 53 -30 53 -18 0 3 -12 17 -27 31
l-28 26 29 -21 c38 -28 51 -27 75 8 l21 29 -27 20 c-16 10 -33 22 -40 25 -6 4
-27 -11 -48 -35z"/>
<path d="M3670 2845 c-7 -9 -11 -17 -9 -19 73 -56 75 -57 93 -37 17 18 16 20
-21 45 -44 30 -47 31 -63 11z"/>
<path d="M3591 2804 c-23 -34 -24 -35 -5 -49 47 -38 55 -38 86 -8 l29 28 -28
23 c-52 43 -57 43 -82 6z"/>
<path d="M2607 2819 c7 -7 15 -10 18 -7 3 3 -2 9 -12 12 -14 6 -15 5 -6 -5z"/>
<path d="M3450 2768 l-23 -31 32 -29 c17 -15 37 -28 44 -28 14 0 74 57 66 63
-38 31 -78 57 -86 57 -5 0 -20 -14 -33 -32z"/>
<path d="M3766 2779 c-15 -21 -13 -24 55 -70 45 -31 75 -46 86 -42 12 5 15 2
10 -10 -4 -11 2 -22 15 -32 20 -13 24 -13 40 2 22 20 20 23 -44 67 -29 19 -74
52 -100 71 l-46 36 -16 -22z"/>
<path d="M3277 2735 c-20 -28 -10 -55 31 -77 22 -11 26 -10 48 17 13 17 24 33
24 37 0 8 -64 48 -76 48 -5 0 -17 -12 -27 -25z"/>
<path d="M3681 2739 c-12 -11 -21 -24 -19 -29 2 -4 27 -27 57 -50 57 -45 70
-46 98 -3 13 20 11 24 -41 62 -30 23 -59 41 -64 41 -4 0 -18 -9 -31 -21z m73
-34 c-4 -8 -1 -15 6 -15 6 0 8 -5 5 -10 -5 -8 -11 -8 -19 -1 -7 6 -16 8 -19 4
-4 -3 -7 -2 -7 3 0 12 21 34 32 34 4 0 5 -7 2 -15z"/>
<path d="M3556 2699 c-34 -40 -33 -49 10 -79 l36 -24 29 32 c16 18 29 39 29
46 0 11 -60 56 -75 56 -2 0 -15 -14 -29 -31z"/>
<path d="M3370 2672 l-31 -37 28 -23 28 -22 32 37 c18 21 33 41 33 45 0 3 -13
13 -30 21 -29 15 -30 15 -60 -21z"/>
<path d="M3657 2632 c-34 -36 -34 -44 5 -77 l32 -27 34 37 c36 40 35 48 -16
77 -28 17 -29 17 -55 -10z"/>
<path d="M3816 2629 c-18 -30 -18 -31 5 -47 33 -24 85 -56 77 -47 -4 4 2 19
12 33 27 33 26 37 -17 67 -48 32 -55 32 -77 -6z"/>
<path d="M3437 2622 c-15 -15 -27 -31 -27 -35 0 -4 17 -17 38 -31 l37 -23 27
40 27 41 -27 18 c-36 24 -44 23 -75 -10z m58 -22 c3 -5 1 -10 -4 -10 -6 0 -11
5 -11 10 0 6 2 10 4 10 3 0 8 -4 11 -10z"/>
<path d="M3979 2624 c-11 -14 -10 -18 6 -30 24 -18 34 -18 41 1 6 15 -11 45
-26 45 -4 0 -14 -7 -21 -16z"/>
<path d="M3287 2592 c-15 -15 -27 -33 -27 -38 0 -11 34 -45 58 -58 13 -8 72
50 72 70 0 9 -61 54 -74 54 -1 0 -14 -13 -29 -28z"/>
<path d="M3520 2569 c-22 -29 -22 -31 -4 -50 37 -41 52 -43 84 -9 17 18 30 36
30 40 0 7 -73 50 -85 50 -2 0 -13 -14 -25 -31z"/>
<path d="M4037 2593 c-15 -14 -5 -33 29 -59 33 -26 36 -26 52 -10 16 16 15 19
-18 46 -35 30 -51 36 -63 23z"/>
<path d="M3746 2559 c-29 -34 -27 -42 17 -69 l30 -19 29 36 28 36 -32 23 c-17
13 -35 24 -39 24 -4 0 -19 -14 -33 -31z"/>
<path d="M3930 2566 c-12 -14 -20 -32 -17 -40 3 -8 36 -35 73 -60 l68 -45 22
31 c13 17 21 34 19 39 -6 8 -131 99 -138 99 -2 0 -14 -11 -27 -24z"/>
<path d="M3380 2519 l-33 -41 29 -24 c39 -31 47 -30 83 12 l32 36 -28 21 c-15
11 -33 24 -39 29 -8 6 -23 -6 -44 -33z"/>
<path d="M3194 2509 l-29 -31 35 -29 34 -29 30 28 31 27 -24 -27 c-27 -31 -23
-41 27 -71 30 -17 31 -17 51 12 12 16 21 31 21 34 0 3 -28 27 -62 53 -35 26
-68 51 -74 55 -6 5 -22 -3 -40 -22z"/>
<path d="M3622 2510 c-12 -16 -22 -34 -22 -40 0 -10 77 -70 90 -70 11 0 60 73
54 81 -3 6 -92 59 -98 59 -1 0 -12 -13 -24 -30z m61 -65 c-3 -9 -8 -14 -10
-11 -3 3 -2 9 2 15 9 16 15 13 8 -4z"/>
<path d="M3843 2508 c-36 -41 -36 -46 8 -73 l41 -27 24 23 c33 31 30 50 -11
77 -19 12 -36 22 -38 22 -2 0 -13 -10 -24 -22z"/>
<path d="M3475 2466 c-30 -39 -31 -48 -7 -68 35 -31 60 -31 87 -1 13 15 25 33
25 39 0 6 -18 23 -40 38 l-39 26 -26 -34z"/>
<path d="M3733 2429 l-27 -41 25 -19 c34 -26 44 -24 74 16 30 38 27 48 -15 70
-29 15 -30 15 -57 -26z"/>
<path d="M3936 2439 c-14 -17 -26 -34 -26 -38 0 -5 19 -21 42 -36 l42 -28 23
29 c31 39 29 47 -16 77 l-40 26 -25 -30z"/>
<path d="M3571 2393 l-30 -37 35 -24 c41 -27 53 -25 83 17 l21 30 -33 25 c-19
14 -37 26 -40 26 -3 0 -19 -17 -36 -37z"/>
<path d="M3362 2390 c-28 -38 -28 -42 7 -63 39 -23 56 -21 75 8 23 34 20 43
-16 65 -42 25 -40 25 -66 -10z"/>
<path d="M3811 2377 l-30 -44 70 -47 c38 -25 72 -46 74 -46 3 0 18 19 35 41
l30 42 -68 44 c-37 25 -70 47 -74 49 -4 2 -20 -15 -37 -39z m73 -42 c-34 -45
-41 -45 -12 0 13 19 27 35 31 35 4 0 -4 -16 -19 -35z"/>
<path d="M3667 2333 c-14 -20 -24 -40 -22 -44 7 -10 216 -152 219 -147 26 35
46 68 46 76 0 8 -61 51 -191 135 -25 17 -26 17 -52 -20z"/>
<path d="M3463 2338 c-36 -41 -35 -46 8 -75 l41 -27 28 34 c31 38 28 50 -21
76 -35 18 -32 18 -56 -8z"/>
<path d="M3266 2303 l-25 -37 50 -34 c28 -18 56 -31 63 -29 7 3 22 21 34 41
l21 35 -48 30 c-26 17 -53 31 -59 31 -6 0 -23 -17 -36 -37z"/>
<path d="M3555 2269 c-14 -23 -25 -42 -23 -43 2 -1 17 -12 35 -24 29 -20 30
-24 20 -51 l-11 -29 -38 26 c-21 13 -40 23 -41 21 -2 -2 -10 -16 -20 -30 l-16
-27 52 -34 c29 -19 68 -42 87 -52 38 -18 30 -11 -69 51 -36 24 -63 43 -59 43
7 0 95 -51 139 -81 26 -17 27 -17 44 1 16 18 16 20 -13 37 -30 19 -30 19 -12
43 l18 24 72 -49 73 -49 28 34 c16 19 28 39 26 45 -2 5 -45 38 -97 73 l-93 63
-35 -33 c-35 -33 -35 -21 0 18 19 22 19 22 -10 43 l-30 21 -27 -41z m230 -170
c11 -17 2 -18 -19 -3 -17 12 -17 14 -4 14 9 0 20 -5 23 -11z"/>
<path d="M3396 2230 c-23 -35 -37 -74 -20 -57 4 3 15 -4 25 -16 10 -12 18 -18
19 -13 0 6 6 1 14 -9 12 -17 15 -16 44 24 17 23 29 48 26 55 -3 7 -22 23 -43
34 l-38 22 -27 -40z"/>
<path d="M3657 2032 c-23 -26 -23 -27 26 -60 45 -32 47 -31 79 20 11 16 14 29
8 33 -6 3 -10 1 -10 -4 0 -17 -25 -13 -53 9 -31 24 -30 24 -50 2z"/>
<path d="M2029 1856 c-135 -38 -271 -151 -334 -279 -60 -123 -77 -243 -51
-368 26 -123 91 -222 207 -319 32 -26 56 -50 53 -52 -2 -3 2 -5 9 -5 6 0 35
-11 62 -23 65 -30 100 -35 217 -34 94 1 101 2 181 42 147 73 264 216 301 368
17 71 29 204 19 204 -5 0 -9 18 -9 39 -1 24 -18 71 -45 122 -77 150 -228 276
-369 308 -60 14 -184 12 -241 -3z m223 -17 c253 -53 441 -323 405 -584 -19
-142 -107 -286 -225 -367 -25 -17 -42 -26 -38 -20 9 15 1 15 -25 1 -11 -5 -17
-13 -15 -17 3 -4 -12 -7 -32 -5 -35 2 -35 2 -7 -5 l30 -8 -35 -13 c-19 -7 -74
-15 -121 -18 -108 -7 -197 17 -287 77 -159 106 -245 263 -246 445 0 321 295
576 596 514z"/>
<path d="M2052 1621 c-67 -23 -133 -87 -162 -154 -45 -103 -20 -245 54 -319
35 -34 111 -69 132 -61 10 4 15 2 11 -3 -3 -6 9 -8 30 -6 25 3 34 1 29 -7 -4
-6 0 -11 9 -11 9 0 13 5 10 10 -4 6 7 10 25 10 17 0 38 6 46 13 8 6 36 30 63
52 30 25 57 60 72 92 13 29 27 53 32 53 4 0 7 25 7 55 0 195 -185 338 -358
276z m213 -49 c-3 -3 -11 0 -18 7 -9 10 -8 11 6 5 10 -3 15 -9 12 -12z m-205
-35 c0 -2 -15 -16 -32 -33 l-33 -29 29 33 c28 30 36 37 36 29z m-72 -92 c-6
-14 -13 -23 -15 -21 -5 5 15 46 22 46 3 0 -1 -11 -7 -25z m388 -128 c-10 -66
-59 -142 -110 -172 -71 -42 -155 -46 -202 -10 -17 13 -14 13 18 0 146 -59 305
82 285 253 l-6 47 11 -38 c5 -21 7 -57 4 -80z"/>
<path d="M2455 1474 c8 -27 15 -52 15 -56 0 -5 5 -8 10 -8 21 0 10 66 -15 90
l-25 24 15 -50z"/>
<path d="M2501 1463 c0 -5 17 -21 37 -37 l37 -30 -34 37 c-36 38 -42 42 -40
30z"/>
<path d="M2471 1384 c0 -11 3 -14 6 -6 3 7 2 16 -1 19 -3 4 -6 -2 -5 -13z"/>
<path d="M2566 1365 c-19 -14 -19 -15 7 -15 19 0 25 4 21 15 -4 8 -7 15 -8 15
0 0 -10 -7 -20 -15z"/>
<path d="M2456 1251 c-3 -4 6 -6 19 -3 14 2 25 6 25 8 0 8 -39 4 -44 -5z"/>
<path d="M2538 1243 c6 -2 18 -2 25 0 6 3 1 5 -13 5 -14 0 -19 -2 -12 -5z"/>
<path d="M2067 988 c41 -42 61 -53 23 -12 -19 19 -22 27 -11 33 9 6 3 10 -18
13 l-32 5 38 -39z"/>
<path d="M2570 1846 c0 -2 8 -10 18 -17 15 -13 16 -12 3 4 -13 16 -21 21 -21
13z"/>
<path d="M2631 1795 c7 -11 27 -35 42 -54 16 -19 47 -71 68 -115 22 -44 39
-73 39 -64 0 9 5 18 11 20 15 5 -59 114 -120 178 -30 30 -47 46 -40 35z"/>
<path d="M3579 1353 c-13 -16 -12 -17 4 -4 9 7 17 15 17 17 0 8 -8 3 -21 -13z"/>
<path d="M1344 1266 c12 -10 37 -15 60 -15 l41 2 -45 6 c-25 4 -52 10 -60 15
-8 4 -6 0 4 -8z"/>
<path d="M3463 1253 c9 -2 23 -2 30 0 6 3 -1 5 -18 5 -16 0 -22 -2 -12 -5z"/>
<path d="M3568 1253 c7 -3 16 -2 19 1 4 3 -2 6 -13 5 -11 0 -14 -3 -6 -6z"/>
<path d="M3613 1253 c9 -2 23 -2 30 0 6 3 -1 5 -18 5 -16 0 -22 -2 -12 -5z"/>
<path d="M3763 1253 c9 -2 23 -2 30 0 6 3 -1 5 -18 5 -16 0 -22 -2 -12 -5z"/>
<path d="M3818 1253 c6 -2 18 -2 25 0 6 3 1 5 -13 5 -14 0 -19 -2 -12 -5z"/>
<path d="M3918 1253 c17 -2 47 -2 65 0 17 2 3 4 -33 4 -36 0 -50 -2 -32 -4z"/>
<path d="M1401 1176 c2 -2 24 -6 48 -9 29 -4 40 -2 30 4 -13 8 -88 14 -78 5z"/>
<path d="M1548 1173 c6 -2 18 -2 25 0 6 3 1 5 -13 5 -14 0 -19 -2 -12 -5z"/>
<path d="M3103 1173 c115 -2 299 -2 410 0 111 1 18 2 -208 2 -225 0 -316 -1
-202 -2z"/>
</g>
</svg>